<?xml version="1.0" encoding="utf-8"?>
<!-- Generator: Adobe Illustrator 14.0.0, SVG Export Plug-In . SVG Version: 6.00 Build 43363)  -->
<!DOCTYPE svg PUBLIC "-//W3C//DTD SVG 1.1//EN" "http://www.w3.org/Graphics/SVG/1.1/DTD/svg11.dtd">
<svg version="1.1" id="Layer_1" xmlns="http://www.w3.org/2000/svg" xmlns:xlink="http://www.w3.org/1999/xlink" x="0px" y="0px"
	 width="612px" height="792px" viewBox="0 0 612 792" enable-background="new 0 0 612 792" xml:space="preserve">
<g>
	<polygon fill-rule="evenodd" clip-rule="evenodd" fill="#FFFFFF" points="209,300 401.756,300 401.756,492.756 209,492.756 
		209,300 	"/>
	<path fill-rule="evenodd" clip-rule="evenodd" fill="#161B1B" d="M386.19,396.351c0,28.297-36.345,51.213-81.163,51.213
		c-44.818,0-81.163-22.916-81.163-51.213c0-28.245,36.345-51.16,81.163-51.16C349.846,345.191,386.19,368.106,386.19,396.351
		L386.19,396.351z"/>
	<path fill-rule="evenodd" clip-rule="evenodd" fill="#161B1B" d="M329.915,348.708c0.746,0.054,1.492,0.213,2.238,0.267
		c0.159,0.32,0.532,0.053,0.692,0.213c8.633,2.132,16.946,5.063,24.621,9.326c0.639,0,1.012,0.479,1.599,0.64
		c0.853,0.639,1.918,1.279,2.824,1.865c0.533,0.106,0.853,0.64,1.332,0.853c1.066,0.64,1.919,1.279,2.878,1.972
		c1.332,1.119,2.664,1.918,3.837,3.198c0.373,0.267,0.746,0.639,1.119,1.013c1.652,1.279,3.41,3.091,4.796,4.689
		c0.96,1.226,1.813,2.345,2.718,3.57c0.054,0.426,0.479,0.799,0.64,1.172c1.652,2.132,2.718,4.477,3.678,6.875
		c0.692,1.705,1.226,3.304,1.705,5.116c-0.054,0.213,0.106,0.373,0.16,0.533c0.373,2.931,0.959,6.075,0.479,9.274
		c0,0.371,0,0.799,0,1.225c-0.267,1.279-0.373,2.719-0.746,3.943c-0.214,1.066-0.64,2.078-0.906,3.037
		c-0.106,0.32-0.267,0.693-0.373,1.014c-0.054,0.586-0.427,1.066-0.64,1.598c-0.053,0.107,0.054,0.32-0.106,0.373
		c-0.853,1.492-1.438,2.984-2.345,4.371c-0.32,0.533-0.693,1.064-0.906,1.652c-1.438,1.918-2.931,3.943-4.583,5.648
		c-1.651,1.758-3.304,3.41-5.116,4.902c-0.586,0.16-0.746,0.799-1.385,1.066c-0.32,0.426-0.854,0.639-1.227,0.959
		c-0.053,0.16-0.319,0.32-0.532,0.373c-0.906,0.746-2.025,1.492-2.984,2.184c-0.213-0.053-0.32,0.107-0.373,0.215
		c-2.931,1.758-5.542,3.57-8.687,5.008c-0.586,0-1.066,0.428-1.599,0.693c-0.853,0.268-1.706,0.693-2.505,1.119
		c-0.64,0.107-1.173,0.586-1.812,0.693c-0.32,0.32-0.8,0.213-1.119,0.533c-0.373,0.053-0.693,0.213-1.013,0.318
		c-0.267,0.107-0.479,0.32-0.8,0.268c-0.319,0.16-0.586,0.266-0.853,0.426c-0.373,0.107-0.746,0.16-1.119,0.268
		c-0.319,0.158-0.64,0.266-1.013,0.426c-5.436,1.811-11.084,3.197-16.894,4.209c-5.063,0.854-10.338,1.119-15.614,1.387
		c-8.153,0.373-16.307-0.16-24.034-1.174c-4.104-0.586-8.1-1.545-12.044-2.557c-5.968-1.6-11.724-3.623-17.213-6.342
		c-3.89-1.492-7.354-3.838-10.925-6.182c-1.172-0.746-2.292-1.652-3.411-2.506c-0.213-0.373-0.479-0.426-0.799-0.691
		c-3.411-2.451-6.555-5.969-9.06-9.221c-0.373-0.799-1.066-1.385-1.492-2.131c-2.238-3.357-3.89-6.928-5.063-10.711
		c-0.64-2.078-0.906-4.371-1.172-6.662c0.106-0.053,0.106-0.266,0.266-0.213c0.373,0.48,0.373,1.119,0.64,1.598
		c1.013,2.719,4.05,4.744,6.821,5.65c1.119,0.479,2.345,0.639,3.624,0.746c45.67,0.16,91.448,0.053,137.172,0.105
		c2.451-0.266,4.85-0.691,6.874-1.918c0.214-0.373,0.854-0.32,1.066-0.746c0.267-0.107,0.479-0.639,0.906-0.639
		c0.479-0.588,0.853-1.014,1.385-1.547c-0.159-0.373,0.427-0.266,0.267-0.639c0.479-0.799,0.906-1.6,1.066-2.506
		c-0.054-1.332-0.106-2.664-0.106-3.996c-0.854-3.411-4.477-6.022-7.567-6.875c-1.279-0.16-2.505-0.426-3.784-0.479
		c-2.771,0-5.489,0.053-8.207-0.053c-0.267-0.746-0.319-1.545-0.479-2.292c0.586-0.426,1.332-0.426,2.025-0.586
		c0.426-0.053,0.853-0.213,1.278-0.373c-0.319-0.746-1.119-1.386-1.758-1.865c-1.119-0.853-2.398-1.226-3.73-1.545
		c0.053-0.64,0.479-1.012,0.64-1.599c0.479-0.959,0.266-2.185,0.426-3.251c-0.373-0.266-0.586,0.16-0.906,0.373
		c-1.119,0.373-1.865,1.013-2.877,1.545c0.053,0.16-0.107,0.267-0.16,0.427c-0.586,0.053-0.586-0.64-1.013-0.799
		c-1.279-1.226-2.718-2.292-4.21-2.878c-0.213-0.533,0.64-0.586,0.906-0.906c0.319-0.107,0.586-0.32,0.905-0.374
		c0.16-0.426,0.64-0.426,0.96-0.586c0.159-0.427,0.746-0.32,0.905-0.64c0.107,0,0.214,0.054,0.214-0.053
		c0-0.533-0.693-0.639-0.96-0.906c-2.877-1.599-6.607-1.706-9.965-1.013c0.159-0.906,0.692-1.652,0.746-2.611
		c0.053-1.013,0.159-2.238-0.106-3.197c0.106-0.107,0.159-0.267,0.213-0.427c0-0.533,0.64-0.959,0.426-1.492
		c-0.319-0.426-1.332-0.213-1.119-1.066c0.427-0.853,0.854-1.706,1.279-2.505c0.054-0.479-0.479-0.586-0.799-0.746
		c-0.427,0-0.96-0.479-1.333-0.106c-0.053,0.267-0.373,0.533-0.479,0.853c-0.16,0.533-0.479,1.119-0.692,1.599
		c-0.16,0.267-0.267,0.533-0.427,0.853c0,0.054,0,0.16,0,0.267c-0.213,0.479-0.746,0.853-0.532,1.545
		c-1.013,1.066-1.813,2.025-2.825,2.985c0,0.533,0.427,0.853,0.267,1.438c-0.426,0.106-0.64-0.373-0.959-0.533
		c-2.878-1.759-6.075-3.251-10.072-2.345c-0.213,0.107-0.267-0.053-0.373,0c-0.213-0.267-0.586-0.426-0.959-0.426
		c-4.956-1.386-10.126-2.185-15.455-2.611c-0.799-1.333-1.385-2.558-1.918-3.784c-0.106,0.053-0.213-0.053-0.267,0.053
		c-0.106,0.32-0.427,0.586-0.8,0.64c-0.479,0.479-0.746,1.065-1.172,1.545c-0.106,0.639-0.853,0.692-1.066,1.225
		c-1.705-0.053-3.463-0.106-5.169-0.16c-3.784,0.054-7.354,0.426-10.978,0.746c-0.053-0.107-0.266-0.053-0.213-0.213
		c0-0.374,0.213-0.427,0-0.533c-2.505-0.213-4.903,0.213-7.088,0.906c-0.373,0.213-0.799,0.374-1.172,0.586
		c-0.799,0.16-1.226,0.693-1.972,0.959c-0.32,0.267-0.586,0.586-1.066,0.533c-0.32-0.373,0.106-0.853-0.106-1.332
		c-1.599-1.918-3.038-4.05-4.69-5.703c-0.266,0.16-0.426,0.586-0.426,0.799c-1.066,2.186-1.332,5.223-0.586,7.567
		c0.213,0.533-0.373,0.32-0.64,0.374c-3.304-0.32-6.662,0.053-9.433,1.545c-0.479,0.054-0.799,0.587-1.332,0.32
		c-0.906-0.906-1.918-1.865-2.771-2.771c-0.16,0.267-0.373,0.533-0.373,0.853c-0.373,0.586-0.373,1.439-0.533,2.079
		c-0.32,1.386-0.16,3.038,0.106,4.317c-0.053,0.106-0.106,0.106-0.213,0.106c-2.718-0.586-5.809-0.319-8.207,0.799
		c-0.16,0.747-1.013,0.32-1.172,1.013c0.853,0.373,1.599,1.065,2.451,1.385c0.373,0.319,0.959,0.426,1.066,0.906
		c-0.64,0.373-1.119,0.799-1.759,1.279c-0.266,0.32-0.586,0.586-0.853,0.906c-0.053,0.106-0.106,0.16-0.213,0.267
		c-0.053,0.213-0.16,0.267-0.32,0.213c0.106-0.959-0.959-0.853-1.492-1.279c-0.746-0.48-1.386-0.799-2.132-1.226
		c-0.479-0.106-0.32,0.213-0.373,0.319c0.107,0.693,0.16,1.333,0.267,1.972c0.16,0.586,0.586,1.066,0.693,1.545
		c0.16,0.267,0.32,0.533,0.426,0.746c-0.16,0.479-0.853,0.32-1.333,0.426c-1.865,0.266-3.464,1.332-4.53,2.877
		c1.013,0.48,2.185,0.533,3.304,0.799c0.106,0.48-0.267,0.8-0.213,1.226c-0.426,0.16-0.16,0.693-0.213,1.013
		c-4.316,0.32-9.06-0.427-13.11,0.586c-0.373,0.213-0.746,0.267-1.119,0.427c-0.64,0.426-1.333,0.746-2.025,1.012
		c-0.16,0.426-0.479,0.32-0.746,0.64c-0.693,0.426-1.279,1.066-1.865,1.705c-0.426,0.533-0.959,1.386-1.172,2.078
		c-0.267,0.054-0.053,0.427-0.213,0.533c-0.054,0.267-0.16,0.479-0.213,0.693c-0.106,1.119-0.16,2.237-0.267,3.356
		c-0.32-1.119-0.32-2.344-0.213-3.41c0.053-0.799,0.106-1.599,0.16-2.398c0.373-1.972,0.64-3.944,1.333-5.809
		c0.266-1.012,0.799-1.972,1.012-2.984c0.959-1.918,1.865-3.837,3.038-5.702c0.107-0.16,0.48-0.16,0.32-0.479
		c0.586-0.799,1.119-1.652,1.759-2.345c0.053-0.32,0.213-0.64,0.426-0.799c1.759-2.185,3.517-4.317,5.755-6.289
		c0.426-0.053,0.693-0.64,1.119-0.853c2.025-1.812,4.157-3.571,6.448-5.116c2.025-1.385,4.104-2.611,6.235-3.837
		c0.053,0,0.106,0,0.16,0c2.185-1.279,4.53-2.185,6.768-3.357c0.373,0,0.64-0.266,0.959-0.426c0.48-0.106,0.959-0.319,1.386-0.586
		c0.267-0.106,0.586-0.267,0.853-0.373c0.32,0.16,0.373-0.32,0.693-0.16c0.267-0.106,0.586-0.266,0.853-0.426
		c0.374,0.054,0.586-0.32,0.959-0.267c0.267-0.106,0.533-0.32,0.853-0.267c0.267-0.159,0.586-0.266,0.853-0.426
		c0.373-0.107,0.746-0.213,1.119-0.267c0.107-0.32,0.48,0,0.533-0.32c0.479,0,0.799-0.267,1.279-0.267
		c0.32-0.16,0.64-0.267,0.959-0.426c0.586-0.16,1.226-0.213,1.758-0.479c2.345-0.693,4.796-1.172,7.194-1.759
		c2.238-0.106,4.21-0.799,6.395-1.066C300.018,345.405,316.272,345.725,329.915,348.708L329.915,348.708z"/>
	<path fill-rule="evenodd" clip-rule="evenodd" fill="#F4F4F4" d="M315.313,350.681c1.013,1.012,1.013,2.717,0.48,3.997
		c-0.427,0.906-1.492,1.332-2.452,1.545c-1.013-0.16-2.078,0-2.824-0.64c-1.119-0.959-1.332-2.558-0.906-3.836
		c0.427-0.8,1.013-1.706,1.972-1.865C312.915,349.508,314.247,349.881,315.313,350.681L315.313,350.681z"/>
	<path fill-rule="evenodd" clip-rule="evenodd" fill="#F4F4F4" d="M300.231,350.094c0.053,0.586,0.213,1.386-0.16,1.758
		c-0.266,0.107-0.533,0.16-0.799,0.16c-0.054,1.172,0,2.504,0.213,3.677c-0.533,0.693-1.705,0.533-2.505,0.373
		c0-0.106-0.053-0.213-0.106-0.373c-0.106-1.119,0.106-2.398-0.267-3.411c-0.373-0.16-1.119,0.106-1.119-0.48
		c0.16-0.586-0.426-1.332,0.213-1.705c1.226,0,2.452-0.107,3.624-0.267C299.645,349.828,300.071,349.828,300.231,350.094
		L300.231,350.094z"/>
	<path fill-rule="evenodd" clip-rule="evenodd" fill="#F4F4F4" d="M322.454,350.947c0.053,0.64-0.16,1.333-0.213,1.972
		c-0.267,0.479-0.107,1.173-0.16,1.759c0.106,0.213,0.373,0.16,0.533,0.266c0.213-0.106,0.479,0.054,0.586-0.213
		c0.053-0.267-0.106-0.586,0.16-0.746c0-0.959,0.213-1.865,0.319-2.771c0.16-0.213,0.586-0.107,0.853-0.053
		c0.479,0.053,1.013,0.106,1.492,0.267c0.16,1.332-0.319,2.504-0.427,3.73c-0.106,0.48-0.106,0.853-0.479,1.172
		c-0.267,0.533-0.799,0.799-1.278,1.013c-1.599-0.16-3.624-0.053-4.157-1.918c-0.319-0.959,0.213-1.865,0.213-2.877
		c0-0.693,0.32-1.279,0.32-2.025C320.908,350.787,321.761,350.627,322.454,350.947L322.454,350.947z"/>
	<path fill-rule="evenodd" clip-rule="evenodd" fill="#F4F4F4" d="M292.131,352.706c0.106,1.279,0.426,2.558,0.373,3.837
		c-0.48,0.319-1.172,0.266-1.812,0.373c-0.16,0-0.32,0.053-0.426-0.16c-0.267-1.759-0.426-3.624-0.746-5.383
		c-0.053-0.267,0.106-0.426,0.266-0.533c0.8,0.213,1.333-0.533,2.025-0.107C292.024,351.373,292.024,352.066,292.131,352.706
		L292.131,352.706z"/>
	<path fill-rule="evenodd" clip-rule="evenodd" fill="#F4F4F4" d="M305.827,351.747c0.373,0.426,0.373,1.012,0.373,1.599
		c-0.373,0.479-0.853,0.906-1.492,0.799c-0.479,0-0.959-0.267-1.119-0.747c-0.267-0.266-0.106-0.746-0.16-1.119
		c0.267-0.48,0.586-0.693,1.066-0.906C305.028,351.267,305.454,351.48,305.827,351.747L305.827,351.747z"/>
	<path fill-rule="evenodd" clip-rule="evenodd" fill="#F4F4F4" d="M286.002,351.853c-0.213,2.025-0.106,4.157-0.586,6.022
		c-0.799,0.16-1.599,0.267-2.398,0.427c-0.213-0.213-0.32-0.586-0.64-0.693c-0.213,0.267-0.053,0.8-0.479,0.96
		c-0.853-0.054-1.972,0.905-2.452-0.267c-0.373-0.799-1.012-1.493-1.279-2.292c-0.426-0.693-0.853-1.385-1.172-2.131
		c-0.053-0.32,0.213-0.373,0.426-0.533c0.693,0,1.652-0.693,2.078,0.053c0,0.48,0.586,0.747,0.586,1.279
		c0.373,0.213,0.32,1.065,0.799,0.746c0.213-1.065-0.853-1.599-0.799-2.558c0.426-0.319,1.012-0.267,1.545-0.479
		c0.906-0.267,0.799,0.799,1.172,1.226c0.106,0.32,0.32,0.747,0.64,1.013c0-0.053,0.106-0.107,0.106-0.16
		c0.053-0.799-0.053-1.705,0.106-2.451c0.16-0.373,0.64-0.053,0.799-0.373c0.533,0.053,0.906-0.213,1.439-0.107
		C285.896,351.64,285.949,351.747,286.002,351.853L286.002,351.853z"/>
	<path fill-rule="evenodd" clip-rule="evenodd" fill="#F4F4F4" d="M333.752,353.132c0.213,0.107,0.426,0.213,0.426,0.479
		c-0.159,0.533-0.213,1.172-0.479,1.599c-0.479,0.213-0.799-0.373-1.172,0c-0.107,0.373-0.107,0.747-0.32,1.066
		c-0.159,0.32,0.16,0.906-0.267,1.066c-0.053,0.213,0.107,0.48-0.159,0.586c0.053,0.427,0.053,0.906-0.479,0.799
		c-0.533-0.373-1.919,0.267-1.813-0.853c0.106-0.692,0.373-1.332,0.373-2.078c0-0.48,0.32-0.853,0.213-1.333
		c-0.266-0.319-0.959-0.16-0.799-0.799c0.373-0.426-0.054-1.226,0.586-1.438C331.141,352.546,332.419,352.918,333.752,353.132
		L333.752,353.132z"/>
	<path fill-rule="evenodd" clip-rule="evenodd" fill="#F4F4F4" d="M342.225,356.436c0.214,0.533,0.48,1.119,0.373,1.812
		c-0.106,0.213-0.426,0.373-0.373,0.692c-0.639,0.746-1.651,1.119-2.664,0.959c-0.32,0-0.533-0.32-0.906-0.213
		c-0.426,0.213-0.106,0.853-0.64,1.013c-0.692-0.266-1.385-0.426-2.078-0.693c-0.053-0.853,0.373-1.492,0.693-2.185
		c0.053-0.48,0.213-0.853,0.426-1.279c0-0.426,0.267-0.8,0.427-1.172c-0.106-0.373,0.159-0.64,0.266-0.853
		c0.267-0.32,0.587,0,0.906,0C339.934,355.104,341.213,355.21,342.225,356.436L342.225,356.436z"/>
	<path fill-rule="evenodd" clip-rule="evenodd" fill="#F4F4F4" d="M273.586,354.891c-0.054,0.692,0.746,1.172,0.16,1.812
		c-0.267,0.053-0.693,0.106-0.693,0.479c0.32,1.012,0.64,2.025,1.066,2.877c-0.053,0.267,0.16,0.64-0.213,0.746
		c-0.639,0.32-1.385,0.533-2.078,0.427c-0.479-1.013-0.373-2.292-1.013-3.305c-0.106-0.106-0.373,0-0.533-0.053
		c-0.106,0.267-0.426,0.16-0.586,0.053c-0.373-0.373-0.373-1.012-0.639-1.492c0.106-0.427,0.373-0.427,0.639-0.586
		c0.427-0.053,0.853-0.107,1.226-0.426c0.32-0.107,0.746-0.16,1.119-0.267c0.267-0.16,0.533-0.266,0.8-0.426
		C273.106,354.784,273.426,354.624,273.586,354.891L273.586,354.891z"/>
	<path fill-rule="evenodd" clip-rule="evenodd" fill="#36A04D" d="M292.611,361.712c-0.16,0.053-0.32,0.106-0.479,0.16
		c-2.345,0.799-4.423,2.877-5.969,4.903c-0.426,0.533-0.64,1.226-1.066,1.759c0.213,0.266,0.586,0,0.853,0.213
		c1.706,0.107,3.251,0.64,4.743,1.226c0.16,0.586,0.799,0.32,1.013,0.799c0.16,0,0.373,0.053,0.426,0.267
		c0.32,0.16,0.746,0.213,0.959,0.586c0.479,0,0.479,0.533,1.013,0.533c0.213,0.426,0.799,0.693,0.853,1.226
		c0.32,0.053,0.267,0.693,0.64,0.693c0.479-1.065,0.16-2.398-0.693-3.304c-0.106-0.053-0.16-0.16-0.267-0.213
		c-0.16-0.054-0.32-0.054-0.479-0.054c-0.16-0.159-0.32-0.426-0.16-0.639c0.16-0.16,0.319-0.373,0.479-0.426
		c0.053-0.746-0.959-0.853-1.013-1.545c-0.267-0.106-0.426-0.32-0.426-0.533c-0.32-0.267-0.799-0.586-0.799-1.012
		c1.492-0.106,2.771,0.693,4.104,1.226c0.426,0.213,0.746,0.639,1.439,0.746c0.213-0.213,0.319-0.213,0.426-0.16
		c0.213-0.213,0.266-0.213,0.426-0.213c0.106-0.106,0.267-0.16,0.426-0.267c0.106,0,0.267,0.054,0.32-0.053
		c0.16-0.533-0.533-0.533-0.479-1.013c-0.586-0.16-0.48-0.853-0.959-1.119c-0.106-0.266-0.64-0.426-0.586-0.799
		c-0.213-0.106-0.373-0.373-0.426-0.586c-0.213-0.107-0.373-0.32-0.426-0.533c-0.213-0.107-0.373-0.374-0.373-0.586
		c-0.32-0.16-0.64-0.479-0.586-0.853c1.972,0,4.263-0.373,6.021,0.374c1.919,0.426,3.891,1.332,5.329,2.451
		c0.267,0.053,0.479,0.373,0.746,0.427c0.054-1.546,0.64-2.825,1.332-4.051c0.214-0.533,0.96-0.586,1.066-1.225
		c0.426-0.48,0.692-1.066,1.172-1.545c0.373-0.054,0.693-0.32,0.8-0.64c0.054-0.106,0.16,0,0.267-0.053
		c0.533,1.226,1.119,2.452,1.918,3.784c0.054,0.373,0.16,0.799,0.267,1.172c-0.267,0.479-0.799,1.012-1.278,1.492
		c-0.054,0.213-0.054,0.266-0.054,0.373c-0.054-0.053-0.106,0-0.16,0.053c0.214,0.16,0.373-0.053,0.587-0.053
		c0.106-0.106,0.213-0.16,0.319-0.213c1.759-0.746,3.73-0.906,5.756-1.013c0.426,0.32,1.119,0.054,1.599,0.213
		c1.332,0.213,2.664,0.427,3.89,1.013c0.054,0.533-0.692,0.32-1.013,0.48c-0.319,0.053-0.639,0.16-1.065,0.213
		c-0.586,0.159-1.065,0.319-1.438,0.533c-2.186,0.746-4.316,1.865-5.969,3.57c0.16,0.426,0.746,0.373,0.959,0.693
		c0.853,0.267,1.439,0.853,2.132,1.279c0.426,0.213,0.799,0.905,1.279,1.065c-0.054-1.599,0.213-3.091,1.172-4.317
		c0.054-0.106,0.106-0.212,0.16-0.319c0.053-0.16,0.319-0.16,0.373-0.053c0.319,0.266,0.853,0.639,0.906,1.119
		c0.746,0.427,0.853,1.279,1.545,1.812c0.106,0.267,0.692,0.48,0.586,0.906c-0.267,0.267-0.373,0.586-0.479,0.853
		c-0.053,0.32-0.213,0.8,0,1.013c0.373-0.16,0.746-0.693,1.226-0.799c1.865-1.173,3.997-2.079,6.289-1.706
		c0.426,0.107,1.119,0,1.278,0.427c-0.053,0.639-0.799,0.479-1.172,0.905c-0.16,0.16-0.267,0.267-0.427,0.427
		c-0.692,0.426-1.812,1.226-1.759,2.025c1.546-1.12,3.145-2.132,4.903-2.665c1.013-0.479,2.185-0.586,3.357-0.746
		c0.213-0.426-0.373-0.32-0.267-0.692c-0.319-0.16-0.267-0.586-0.586-0.747c-0.16-0.373-0.479-0.692-0.8-1.119
		c-0.053-0.214-0.426-0.374-0.533-0.533c-0.373-0.213-0.586-0.693-0.959-0.959c-0.426-0.106-0.692-0.746-1.065-0.799
		c-0.106-0.586-0.8-0.319-0.96-0.746c-0.586-0.213-1.119-0.533-1.705-0.799c0.054-0.16-0.213-0.16-0.106-0.32
		c3.997-0.906,7.194,0.586,10.072,2.345c0.319,0.16,0.533,0.639,0.959,0.533c0.16-0.586-0.267-0.906-0.267-1.438
		c1.013-0.959,1.813-1.919,2.825-2.985c0.373,0.16,0.746,0.374,1.065,0.533c-0.746,1.013-1.759,1.546-2.292,2.398
		c-0.106,0.054-0.266,0.054-0.319,0.213c0.16,1.173,0.64,2.132,0.319,3.411c-0.266,0.053-0.159,0.693-0.532,0.374
		c-0.746-1.812-2.665-1.866-3.837-3.038c-1.227-0.586-2.398-1.172-3.784-1.333c-0.267,0.16,0.054,0.48,0.267,0.586
		c2.078,1.386,3.624,3.411,4.21,5.649c0,0.213,0,0.373,0,0.586c-2.718-0.16-5.116,0.64-7.301,1.759
		c-0.16,0.426-0.533,0.267-0.746,0.586c-0.373,0.106-0.427,0.426-0.8,0.533c-0.213,0.106-0.532,0.586,0,0.586
		c1.333,0.32,2.665,0.533,3.944,0.906c0.692,0.107,0.853-0.586,1.438-0.746c0.319-0.32,0.746-0.479,1.119-0.746
		c0.799-0.427,1.652-0.746,2.451-1.226c0.533,0,0.906-0.266,1.439-0.213c0.319,0.106,0.479-0.267,0.586-0.053
		c0,0.16,0.053,0.426-0.267,0.373c-0.16,0.16-0.267,0.32-0.427,0.479c-0.479,0.32-1.065,1.012-1.438,1.386
		c-0.213,0.426-0.8,0.799-1.013,1.172c-0.426,0.747-1.278,1.279-1.545,2.025c-0.427,0.16-0.32,0.586-0.479,0.853
		c-0.32,0-0.107,0.427-0.427,0.427c-0.106,0.586-0.64,0.959-0.692,1.545c-0.214,0.32-0.427,0.799-0.64,1.172
		c0,0.586-0.533,0.906-0.479,1.492c-0.427,0.479-1.013-0.054-1.546-0.054c-1.173-0.479-2.505-0.533-3.783-0.799
		c-0.906-1.918-2.611-3.57-4.051-5.222c-0.213-0.107-0.373-0.267-0.373-0.426c0.213-0.213,0.373,0.053,0.586,0.053
		c1.439,0.48,2.398,1.013,3.411,1.918c0.213,0.107,0.479,0.32,0.746,0.533c0.213,0.107,0.373,0.373,0.533,0.479
		c0.053,0.32,0.373,0.479,0.586,0.693c1.226-0.161,2.611,0.106,3.837-0.214c0-0.106-0.054-0.213-0.054-0.319
		c-1.705-1.759-3.57-3.144-5.861-3.517c-0.533-0.16-1.173-0.213-1.706-0.48c0-0.693,0.373-1.332,0.746-1.812
		c0.373-1.226,1.919-2.345,2.825-3.145c0.319,0.106,0.266-0.266,0.532-0.213c0.16-0.053,0-0.266,0.214-0.373
		c-1.972,0-3.518,0.533-4.956,1.332c-0.533,0.373-0.8,0.799-1.333,1.226c-0.426,0.64-0.905,0.853-1.278,1.492
		c-0.373,0.16-0.214-0.266-0.32-0.373c-0.106-1.545,0.427-2.824,0.586-4.21c-0.799-0.853-1.226-1.918-2.131-2.665
		c-0.214,0.533-0.587,0.853-0.64,1.333c0.213,0.586-0.373,0.692-0.267,1.226c-0.16,0.853,0,1.759,0.054,2.611
		c0,0.16,0,0.373,0,0.586c-0.107-0.053-0.214-0.053-0.373-0.106c0-0.053,0-0.106,0-0.266c-1.706-2.132-3.891-3.411-6.289-4.21
		c0.16-0.586,0.8-1.172,1.333-1.599c0.373-0.053,0.639-0.693,1.065-0.693c0.213-0.373,0.479-0.426,0.853-0.586
		c0.16-0.427,0.693-0.32,0.906-0.586c0.586-0.266,1.172-0.64,1.812-0.799c0.479-0.32,1.066-0.426,1.652-0.586
		c0.319,0.053,0.533,0,0.799-0.213c-0.266-0.267-0.639-0.107-0.853-0.267c-3.091-0.32-6.288,0.106-8.846,1.546
		c-0.32,0-0.373,0.373-0.746,0.426c-0.214,0.107-0.427,0.374-0.693,0.427c-0.106,0.267-0.373,0.426-0.692,0.373
		c-0.214-0.692,0.373-1.225,0.479-1.918c0.319-0.427,0.479-0.853,0.853-1.173c-0.054-0.426,0.373-0.426,0.427-0.799
		c0.319-0.373,1.065-0.853,0.746-1.545c-0.48-0.853-0.693-1.865-1.173-2.771c-0.319,0.053-0.586,0.479-0.853,0.693
		c-0.32,0.32-0.373,0.639-0.746,0.853c0.053,0.533-0.692,0.639-0.64,1.172c-0.319,0.107-0.267,0.586-0.586,0.853
		c-0.64,0.959-0.427,2.398-0.693,3.464c0.267,0.16,0.107,0.586,0.16,0.853c-0.053,0.213-0.426,0.16-0.586,0.053
		c-2.931-3.037-6.608-4.423-10.818-4.157c-0.053,0.107,0,0.267,0.106,0.32c1.492,1.172,1.919,4.37,4.637,3.57
		c1.279,0.213,2.611,0.373,3.784,0.906c0.053,0.213-0.053,0.32-0.213,0.373c-2.238-0.319-4.583-0.053-6.715,0.267
		c-0.213,0.053-0.373,0.106-0.586,0.16c-0.106,0.053-0.267,0.106-0.426,0.106c-0.213,0.107-0.48,0.214-0.746,0.32
		c-0.746,0.054-1.172-0.746-1.812-0.905c-0.106-0.053-0.213-0.107-0.32-0.16s-0.213-0.106-0.32-0.16
		c-0.053,0-0.106,0.053-0.16,0.106c0.053,0.213,0.213,0.426,0.426,0.533c0.106,0.106,0.213,0.266,0.32,0.373
		c-0.053,0.373,0.639,0.693,0.106,1.012c-0.32,0-0.373,0.213-0.586,0.533c0.16,0.054,0.267,0.107,0.373,0.107
		c0.32,0.106,0.64,0.213,1.013,0.32c0.373,0.639,0.373,1.545,0.533,2.345c0.106,0.799,0.16,1.705-0.054,2.451
		c-1.865-0.639-3.997-0.853-6.128-0.639c-0.959,0.266-1.972,0.319-2.877,0.799c-0.267,0.106-0.853,0.053-0.959,0.479
		c0.373,0.16,0.693,0.32,1.066,0.479c0,0.053,0,0.053,0,0.053c0.906,0.586,1.918,0.853,2.771,1.439
		c0.693-0.053,1.279-0.32,1.918-0.48c1.812-0.533,4.104-0.853,6.022-0.32c-0.106,0.533-0.853,0.374-1.172,0.693
		c-1.119,0.106-1.972,0.853-2.984,1.119c-0.106,0.426-0.64,0.319-0.799,0.639c-0.479,0.267-1.012,0.533-1.332,0.906
		c-0.107,0.053-0.267-0.053-0.32,0.106c0,0.16-0.267,0.266-0.479,0.319c-0.64,0.693-1.119,1.386-1.865,1.919
		c-0.16,0-0.213-0.107-0.32-0.107c-0.64-2.238-1.599-4.37-2.931-6.395c0-0.053-0.053-0.053-0.053-0.106
		c-0.693-0.906-1.386-1.812-2.132-2.718c0.053-0.16-0.053-0.213-0.106-0.267c-0.053,0-0.16,0-0.213,0
		c-0.586-0.853-1.492-1.279-2.185-2.131c-0.107-0.053-0.213-0.16-0.32-0.267c-0.053-0.053-0.213-0.373,0.053-0.267
		c0.16,0,0.32,0,0.426,0.053c0.586,0.16,1.172,0.267,1.759,0.427c0.906,0.319,1.758,0.693,2.611,1.172
		c0.213,0,0.266,0.266,0.426,0.32c0.906,0.267,1.652,1.172,2.398,1.758c1.652-0.32,3.464-0.32,4.956-0.853
		c-0.799-0.853-1.812-1.705-2.878-2.238c-0.106-0.106-0.106-0.213-0.16-0.32c-2.132-0.959-4.423-1.545-6.928-1.599
		c-0.16-0.959,0.693-1.492,0.906-2.292c0.267-0.16,0.267-0.64,0.533-0.746c0.586-1.012,1.332-2.025,2.398-2.665
		c0.479-0.586,1.119-0.746,1.599-1.226c0.32-0.053,0.213-0.267,0.373-0.32c-0.213-0.32-0.479,0-0.746,0
		c-0.16,0-0.373,0.053-0.533,0.053c-0.746,0.16-1.439,0.48-2.185,0.746c-0.693,0.16-1.226,0.639-1.865,0.853
		c-0.213,0.16-0.479,0.32-0.693,0.427c-0.213,0.106-0.479,0.426-0.799,0.479c0.106,0.213-0.106,0.16-0.213,0.213
		c-0.054,0-0.107,0-0.107,0c-0.746,0.693-1.332,1.386-1.918,2.078c0.106,0.374-0.533,0.32-0.426,0.747
		c-0.32,0-0.106,0.533-0.533,0.319c-0.267-0.692-0.16-1.545-0.107-2.291c0.16-0.906,0.64-1.706,0.64-2.665
		c-1.226-1.332-2.292-2.771-3.411-4.21c-0.373,0.213-0.426,0.746-0.479,1.173c-0.106,0.426-0.16,0.853-0.213,1.172
		c-0.373,1.812-0.053,3.571,0.799,5.01c0.054,0.32,0.373,0.64,0.373,1.012c0.427,0.586-0.106,0.427-0.266,0.267
		c-0.586-0.213-1.119-0.426-1.706-0.639c-2.718-0.64-5.702-0.213-8.1,0.853c-0.373,0-0.64,0.16-0.959,0.266
		c-0.266,0.213-0.64,0.106-0.853,0.373c0.533,0.533,1.439,0.853,1.972,1.386c-0.16,0.267-0.426,0.586-0.799,0.639
		c-0.373,0.64-1.332,1.173-1.599,1.865c-0.373,0.107-0.373,0.587-0.693,0.853c-0.479,0.107-0.32-0.426-0.426-0.64
		c-0.106-1.172,0.213-2.131,0.426-3.144c-0.053-0.586-0.479-0.959-0.959-1.226c-0.48-0.533-1.119-1.119-1.546-1.599
		c-0.319,0.213-0.053,0.693-0.213,0.853c-0.64,1.812-0.16,3.997,0.373,5.596c0.106,0.213,0.426,0.426,0.32,0.799
		c-0.267,0.053-0.586-0.053-0.799-0.16c-2.185-1.066-5.436-1.066-7.674,0c-0.32-0.106-0.426,0.16-0.639,0.267
		c0,0.106,0,0.16,0,0.213c1.119,0.586,2.078,1.119,3.197,1.706c1.119-0.586,2.345-0.64,3.57-0.853
		c0.213,0.054,0.533,0.16,0.32,0.427c-1.012,0.267-1.918,0.853-2.877,1.172c-0.16,0.426-0.533,0.32-0.799,0.692
		c-0.32-0.053-0.373,0.32-0.533,0.48c-0.266,0.426-0.799,0.213-0.906,0.746c-0.373,0.16-0.106,0.48-0.479,0.533
		c0,0.16-0.32,0.373,0,0.479c1.172-0.107,2.558,0.053,3.784-0.107c0.16-0.16,0.266-0.479,0.586-0.319
		c0.32,0.16,0.373,0.213,0.373,0.319c0.746,0.906,1.386,1.812,1.333,2.985c-0.746,0.053-1.599,0.266-2.238,0.106
		c0-0.106,0-0.213,0-0.32c0.106-0.053,0.319-0.107,0.426-0.267c-0.107-0.479-0.799-0.479-1.226-0.693
		c-1.333-0.213-2.984-0.267-4.157,0.267c-0.16-1.333,0.053-2.771,0.906-3.73c-0.053-0.106,0.053-0.266-0.106-0.32
		c-0.16,0.16-0.586,0-0.533,0.32c-0.266,0.053-0.479,0.32-0.693,0.32c-0.266,0.266-0.533,0.533-0.799,0.799
		c-0.053,0.107-0.16,0.213-0.213,0.32c-0.106,0.32-0.16,0.586-0.267,0.906c-0.16,0.266-0.213,0.639-0.267,0.958
		c-0.106,0.107-0.319,0.107-0.426,0c-0.693-0.746,0.053-2.238-1.172-2.558c-0.16-0.107-0.32-0.107-0.373-0.213
		c-0.479-0.16-0.906-0.48-1.332-0.373c-0.053,0.799,0.32,1.492,0.586,2.238c0.16,0.213,0.267,0.373,0.48,0.586
		c0.106,0.586,1.065,0.693,0.959,1.386c-1.918-0.267-3.784,0.267-5.169,1.386c-0.266,0-0.213,0.319-0.426,0.373
		c0.373,0.213,0.959,0.373,1.492,0.427c0.533,0,1.226,0.426,1.652-0.213c0.053-0.053,0.106-0.053,0.16-0.106
		c0.053,0,0.106,0,0.106-0.054c0.213-0.32,0.48-0.267,0.64-0.267c0.053,0.213-0.053,0.427-0.267,0.533
		c-0.053,0.053-0.106,0.107-0.16,0.16c-0.053,0.053-0.053,0.106-0.106,0.16c-0.16,0.16-0.32,0.32-0.427,0.479
		c0.054,0.32-0.479,0.267-0.373,0.64c-0.373,0.267-0.213,0.906-0.533,1.172c-0.053,0.107,0.053,0.266,0.213,0.213
		c0.533-0.16,1.065-0.266,1.599-0.426c0.16-0.267,0.533-0.054,0.693-0.213c0.213-0.693,0.373-1.386,0.906-1.865
		c-0.16-0.373,0.32-0.32,0.373-0.586c0.479-0.426,0.746-1.226,1.492-0.906c1.279,0.639,2.558,1.492,3.464,2.611
		c0.106,0.586-0.64,0.319-0.959,0.479c-2.345,0.267-4.477,1.066-6.768,1.439c0,0.107-0.16,0.107-0.107,0.213
		c0.054,0.053,0.107,0.106,0.107,0.16c38.05,0,76.153,0,114.204,0c0.053-0.053,0.159-0.107,0.159-0.213
		c-0.053-0.053-0.106-0.107-0.159-0.16c-2.559-0.053-4.956-0.533-7.302-1.172c-0.426-0.586,0.746-0.799,0.854-1.332
		c0.373-0.267,0.799-0.959,1.332-1.12c0.213-0.373,0.479-0.426,0.853-0.533c0.373-0.426,0.959-0.853,1.599-0.64
		c1.119,0.8,1.759,2.132,2.185,3.357c0.693,0.213,1.439,0.373,2.079,0.693c0.106,0,0.266,0.053,0.373,0.053
		c0.106-0.106,0.053-0.32,0-0.426c-0.214-0.426-0.427-0.906-0.64-1.385c-0.213-0.267-0.479-0.533-0.533-0.906
		c-0.106-0.053-0.106-0.106-0.16-0.16c-0.266-0.054-0.426-0.267-0.373-0.479c0.267,0,0.48-0.054,0.64,0.213
		c0.054,0.053,0.054,0.053,0.054,0.053c0.16,0.106,0.319,0.16,0.479,0.213c0,0.16,0.213,0.16,0.319,0.16
		c0.8-0.16,1.6-0.213,2.345-0.48c-0.159-0.373-0.639-0.692-1.012-0.906c-1.279-0.959-3.038-0.799-4.477-1.013
		c0.053-0.426,0.532-0.746,0.905-1.012c-0.159-0.373,0.427-0.267,0.267-0.639c0.054-0.32,0.479-0.48,0.427-0.853
		c0.267-0.479,0.373-1.012,0.426-1.599c-0.053-0.054-0.106-0.107-0.159-0.16c-0.427,0.16-0.853,0.639-1.386,0.639
		c-0.267,0.16-0.64,0.213-0.8,0.479c-0.053,0.586-0.159,1.226-0.319,1.706c-0.054,0.213-0.16,0.373-0.32,0.533
		c-0.372,0.053-0.372-0.48-0.532-0.746c-0.106-1.279-1.332-2.079-2.292-2.878c-0.106-0.053-0.267-0.106-0.373-0.16
		c-0.053,0-0.106,0.054-0.106,0.107c0.106,0.106,0,0.373,0.267,0.426c0.106,0.32,0.319,0.533,0.427,0.799
		c0.319,0.853,0.373,1.865,0.319,2.718c-1.652-0.479-3.997-0.586-5.436,0.373c-0.054,0.106,0.053,0.213-0.054,0.266
		c-1.438-0.426-2.611-0.959-4.104-0.799c-0.373-0.426,0.16-0.746,0.106-1.226c0.214-0.746,0.854-1.333,1.386-1.865
		c0.479,0.054,0.64,0.533,0.96,0.693c1.599-0.106,3.037,0.213,4.583,0c-1.813-2.665-4.583-4.263-7.461-4.903
		c-0.106-0.106-0.106-0.213-0.106-0.32c0.639-0.267,1.385,0,2.078,0.053c1.013,0.32,2.132,0.48,3.091,0.906
		c0.373-0.213,0.853-0.426,1.172-0.64c0.48-0.32,1.119-0.533,1.546-0.853c0.267-0.48,2.025-0.426,0.853-1.119
		c-2.718-1.226-6.768-1.226-9.539,0c-0.267,0.053-0.586,0.32-0.906,0.16c-0.053-0.746,0.746-1.332,0.853-2.132
		c0.533-1.599,0.8-3.623,0.267-5.275c-0.053-0.16,0.106-0.213,0.054-0.32c0.267,0.106,0.479,0.16,0.746,0.213
		c0.16,0.16,0.373,0.053,0.533,0c0.266,0.959,0.159,2.185,0.106,3.197c-0.054,0.959-0.587,1.706-0.746,2.611
		c3.357-0.693,7.088-0.586,9.965,1.013c0.267,0.267,0.96,0.373,0.96,0.906c0,0.107-0.106,0.053-0.214,0.053
		c-0.159,0.32-0.746,0.213-0.905,0.64c-0.32,0.16-0.8,0.16-0.96,0.586c-0.319,0.053-0.586,0.267-0.905,0.374
		c-0.267,0.319-1.119,0.373-0.906,0.906c1.492,0.586,2.931,1.652,4.21,2.878c0.427,0.16,0.427,0.852,1.013,0.799
		c0.053-0.16,0.213-0.267,0.16-0.427c1.012-0.533,1.758-1.172,2.877-1.545c0.32-0.213,0.533-0.639,0.906-0.373
		c-0.16,1.066,0.054,2.292-0.426,3.251c-0.16,0.586-0.587,0.959-0.64,1.599c1.332,0.32,2.611,0.693,3.73,1.545
		c0.639,0.479,1.438,1.119,1.758,1.865c-0.426,0.16-0.853,0.32-1.278,0.373c-0.693,0.16-1.439,0.16-2.025,0.586
		c0.16,0.747,0.213,1.546,0.479,2.292c2.718,0.106,5.436,0.053,8.207,0.053c1.279,0.053,2.505,0.319,3.784,0.479
		c3.091,0.853,6.714,3.464,7.567,6.875c0,1.332,0.053,2.664,0.106,3.996c-0.16,0.906-0.587,1.707-1.066,2.506
		c0.16,0.373-0.426,0.266-0.267,0.639c-0.532,0.533-0.905,0.959-1.385,1.547c-0.427,0-0.64,0.531-0.906,0.639
		c-0.213,0.426-0.853,0.373-1.066,0.746c-2.024,1.227-4.423,1.652-6.874,1.918c-45.724-0.053-91.501,0.055-137.172-0.105
		c-1.279-0.107-2.505-0.268-3.624-0.746c-2.771-0.906-5.809-2.932-6.821-5.65c-0.267-0.479-0.267-1.117-0.64-1.598
		c0-0.053-0.053-0.16-0.053-0.268c0.107-1.119,0.16-2.237,0.267-3.356c0.053-0.213,0.16-0.426,0.213-0.693
		c0.16-0.106-0.054-0.479,0.213-0.533c0.213-0.692,0.746-1.545,1.172-2.078c0.586-0.639,1.172-1.279,1.865-1.705
		c0.267-0.32,0.586-0.213,0.746-0.64c0.693-0.267,1.386-0.586,2.025-1.012c0.373-0.16,0.746-0.213,1.119-0.427
		c4.05-1.013,8.793-0.266,13.11-0.586c0.053-0.32-0.213-0.853,0.213-1.013c-0.054-0.426,0.319-0.746,0.213-1.226
		c-1.119-0.266-2.292-0.319-3.304-0.799c1.066-1.545,2.665-2.611,4.53-2.877c0.48-0.106,1.173,0.053,1.333-0.426
		c-0.106-0.213-0.267-0.479-0.426-0.746c-0.106-0.479-0.533-0.959-0.693-1.545c-0.106-0.64-0.16-1.279-0.267-1.972
		c0.053-0.106-0.106-0.426,0.373-0.319c0.746,0.426,1.386,0.746,2.132,1.226c0.533,0.426,1.599,0.32,1.492,1.279
		c0.16,0.053,0.267,0,0.32-0.213c0.106-0.106,0.16-0.16,0.213-0.267c0.267-0.319,0.586-0.586,0.853-0.906
		c0.64-0.479,1.119-0.906,1.759-1.279c-0.106-0.48-0.693-0.587-1.066-0.906c-0.853-0.32-1.599-1.013-2.451-1.385
		c0.16-0.693,1.013-0.267,1.172-1.013c2.398-1.119,5.489-1.385,8.207-0.799c0.106,0,0.16,0,0.213-0.106
		c-0.267-1.279-0.426-2.931-0.106-4.317c0.16-0.639,0.16-1.492,0.533-2.079c0-0.32,0.213-0.586,0.373-0.853
		c0.853,0.906,1.865,1.865,2.771,2.771c0.533,0.267,0.853-0.267,1.332-0.32c2.771-1.492,6.128-1.865,9.433-1.545
		c0.267-0.054,0.853,0.16,0.64-0.374c-0.746-2.345-0.48-5.382,0.586-7.567c0-0.213,0.16-0.639,0.426-0.799
		c1.652,1.652,3.091,3.784,4.69,5.703c0.213,0.479-0.213,0.959,0.106,1.332c0.479,0.053,0.746-0.267,1.066-0.533
		c0.746-0.266,1.172-0.799,1.972-0.959c0.373-0.213,0.799-0.373,1.172-0.586c2.185-0.692,4.583-1.119,7.088-0.906
		C292.824,361.285,292.611,361.338,292.611,361.712L292.611,361.712z"/>
	<path fill-rule="evenodd" clip-rule="evenodd" fill="#F4F4F4" d="M266.125,358.514c0.267,0.746,0.586,1.545,1.013,2.238
		c0.213,0.32,0.106,0.853,0.266,1.279c0.213,1.332-1.119,1.918-2.025,2.451c-0.32-0.16-0.479,0.16-0.693,0.266
		c-0.426,0-0.906,0.267-1.279,0c-0.533,0-0.959-0.266-1.386-0.586c-0.479-0.799-0.746-1.705-1.119-2.558
		c-0.213-0.586-0.799-1.119-0.586-1.758c0.746-0.107,1.438-1.279,2.185-0.479c0.054,0.426,0.213,0.586,0.427,0.959
		c0.373,0.693,0.373,1.545,1.012,2.025c0.373,0,0.64-0.106,0.853-0.426c-0.106-1.065-0.906-1.812-1.172-2.877
		c-0.106-0.16-0.319-0.374-0.16-0.586c0.213-0.106,0.32-0.32,0.586-0.213c0.48-0.213,0.853-0.746,1.545-0.586
		C265.858,357.928,265.858,358.354,266.125,358.514L266.125,358.514z"/>
	<path fill-rule="evenodd" clip-rule="evenodd" fill="#F4F4F4" d="M348.034,364.376c-0.16,0.053-0.373,0.16-0.533,0
		c-0.267-0.053-0.479-0.107-0.746-0.213c-0.373-0.16-0.693-0.32-1.119-0.48c-0.319-0.159-0.692-0.373-1.065-0.533
		c-0.214-0.692,0.319-1.066,0.532-1.545c0-0.106,0-0.213,0-0.267c0.16-0.319,0.267-0.586,0.427-0.853
		c0.213-0.479,0.532-1.066,0.692-1.599c0.106-0.319,0.427-0.586,0.479-0.853c0.373-0.373,0.906,0.106,1.333,0.106
		c0.319,0.16,0.853,0.267,0.799,0.746c-0.426,0.799-0.853,1.652-1.279,2.505c-0.213,0.853,0.8,0.64,1.119,1.066
		c0.214,0.533-0.426,0.959-0.426,1.492C348.193,364.11,348.141,364.27,348.034,364.376L348.034,364.376z"/>
	<path fill-rule="evenodd" clip-rule="evenodd" fill="#161B1B" d="M288.934,362.245c0.267,0,0.533-0.32,0.746,0
		c-0.16,0.053-0.053,0.267-0.373,0.32c-0.479,0.479-1.119,0.639-1.599,1.226c-1.066,0.639-1.812,1.652-2.398,2.665
		c-0.267,0.106-0.267,0.586-0.533,0.746c-0.213,0.8-1.066,1.333-0.906,2.292c2.504,0.054,4.796,0.64,6.928,1.599
		c0.053,0.107,0.053,0.213,0.16,0.32c1.066,0.533,2.079,1.386,2.878,2.238c-1.492,0.533-3.304,0.533-4.956,0.853
		c-0.746-0.586-1.492-1.492-2.398-1.758c-0.16-0.054-0.213-0.32-0.426-0.32c-0.853-0.479-1.706-0.853-2.611-1.172
		c-0.586-0.16-1.172-0.267-1.759-0.427c-0.106-0.053-0.267-0.053-0.426-0.053c-0.267-0.106-0.106,0.213-0.053,0.267
		c0.106,0.107,0.213,0.213,0.32,0.267c0.692,0.853,1.599,1.279,2.185,2.131c0.054,0,0.16,0,0.213,0
		c0.053,0.054,0.16,0.107,0.106,0.267c0.746,0.906,1.439,1.812,2.132,2.718c0,0.053,0.053,0.053,0.053,0.106
		c1.332,2.025,2.292,4.157,2.931,6.395c0.106,0,0.16,0.107,0.32,0.107c0.746-0.533,1.226-1.226,1.865-1.919
		c0.213-0.053,0.479-0.159,0.479-0.319c0.053-0.16,0.213-0.053,0.32-0.106c0.32-0.374,0.853-0.64,1.332-0.906
		c0.16-0.32,0.693-0.213,0.799-0.639c1.013-0.267,1.865-1.013,2.984-1.119c0.32-0.32,1.066-0.16,1.172-0.693
		c-1.918-0.533-4.21-0.213-6.022,0.32c-0.639,0.16-1.226,0.427-1.918,0.48c-0.853-0.586-1.865-0.853-2.771-1.439c0,0,0,0,0-0.053
		c-0.373-0.16-0.693-0.32-1.066-0.479c0.106-0.426,0.693-0.374,0.959-0.479c0.906-0.48,1.918-0.533,2.877-0.799
		c2.132-0.213,4.263,0,6.128,0.639c0.213-0.746,0.16-1.652,0.054-2.451c-0.16-0.799-0.16-1.706-0.533-2.345
		c-0.373-0.107-0.693-0.214-1.013-0.32c-0.106,0-0.213-0.053-0.373-0.107c0.213-0.32,0.267-0.533,0.586-0.533
		c0.533-0.319-0.16-0.639-0.106-1.012c-0.107-0.107-0.213-0.267-0.32-0.373c-0.213-0.106-0.373-0.319-0.426-0.533
		c0.053-0.053,0.106-0.106,0.16-0.106c0.106,0.053,0.213,0.106,0.32,0.16s0.213,0.107,0.32,0.16c0.64,0.159,1.066,0.959,1.812,0.905
		c0.266-0.106,0.533-0.213,0.746-0.32c0.16,0,0.32-0.053,0.426-0.106c0.213-0.054,0.373-0.107,0.586-0.16
		c2.132-0.319,4.477-0.586,6.715-0.267c0.16-0.053,0.267-0.16,0.213-0.373c-1.172-0.533-2.505-0.693-3.784-0.906
		c-2.718,0.799-3.145-2.398-4.637-3.57c-0.106-0.054-0.16-0.213-0.106-0.32c4.21-0.266,7.887,1.12,10.818,4.157
		c0.16,0.107,0.533,0.161,0.586-0.053c-0.053-0.267,0.106-0.693-0.16-0.853c0.267-1.066,0.054-2.505,0.693-3.464
		c0.319-0.266,0.267-0.746,0.586-0.853c-0.053-0.533,0.692-0.639,0.64-1.172c0.373-0.213,0.426-0.533,0.746-0.853
		c0.267-0.213,0.533-0.64,0.853-0.693c0.479,0.906,0.692,1.918,1.173,2.771c0.319,0.693-0.427,1.173-0.746,1.545
		c-0.054,0.373-0.48,0.373-0.427,0.799c-0.373,0.32-0.533,0.746-0.853,1.173c-0.106,0.693-0.693,1.226-0.479,1.918
		c0.319,0.053,0.586-0.106,0.692-0.373c0.267-0.053,0.479-0.32,0.693-0.427c0.373-0.053,0.426-0.426,0.746-0.426
		c2.558-1.439,5.755-1.866,8.846-1.546c0.214,0.16,0.587,0,0.853,0.267c-0.266,0.213-0.479,0.267-0.799,0.213
		c-0.586,0.16-1.173,0.266-1.652,0.586c-0.64,0.16-1.226,0.533-1.812,0.799c-0.213,0.267-0.746,0.16-0.906,0.586
		c-0.373,0.16-0.64,0.213-0.853,0.586c-0.427,0-0.692,0.64-1.065,0.693c-0.533,0.426-1.173,1.013-1.333,1.599
		c2.398,0.8,4.583,2.079,6.289,4.21c0,0.16,0,0.213,0,0.266c0.159,0.053,0.266,0.053,0.373,0.106c0-0.213,0-0.426,0-0.586
		c-0.054-0.853-0.214-1.759-0.054-2.611c-0.106-0.533,0.479-0.64,0.267-1.226c0.053-0.479,0.426-0.799,0.64-1.333
		c0.905,0.746,1.332,1.812,2.131,2.665c-0.159,1.386-0.692,2.665-0.586,4.21c0.106,0.107-0.053,0.533,0.32,0.373
		c0.373-0.639,0.853-0.853,1.278-1.492c0.533-0.426,0.8-0.853,1.333-1.226c1.438-0.799,2.984-1.332,4.956-1.332
		c-0.214,0.106-0.054,0.32-0.214,0.373c-0.267-0.053-0.213,0.32-0.532,0.213c-0.906,0.8-2.452,1.918-2.825,3.145
		c-0.373,0.479-0.746,1.119-0.746,1.812c0.533,0.267,1.173,0.32,1.706,0.48c2.291,0.373,4.156,1.758,5.861,3.517
		c0,0.106,0.054,0.213,0.054,0.319c-1.226,0.32-2.611,0.053-3.837,0.214c-0.213-0.214-0.533-0.374-0.586-0.693
		c-0.16-0.106-0.32-0.373-0.533-0.479c-0.267-0.213-0.533-0.426-0.746-0.533c-1.013-0.905-1.972-1.438-3.411-1.918
		c-0.213,0-0.373-0.266-0.586-0.053c0,0.16,0.16,0.319,0.373,0.426c1.439,1.652,3.145,3.304,4.051,5.222
		c1.278,0.267,2.61,0.32,3.783,0.799c0.533,0,1.119,0.533,1.546,0.054c-0.054-0.586,0.479-0.906,0.479-1.492
		c0.213-0.373,0.426-0.853,0.64-1.172c0.053-0.586,0.586-0.959,0.692-1.545c0.319,0,0.106-0.427,0.427-0.427
		c0.159-0.266,0.053-0.693,0.479-0.853c0.267-0.746,1.119-1.279,1.545-2.025c0.213-0.373,0.8-0.746,1.013-1.172
		c0.373-0.374,0.959-1.066,1.438-1.386c0.16-0.16,0.267-0.32,0.427-0.479c0.319,0.053,0.267-0.213,0.267-0.373
		c-0.106-0.213-0.267,0.16-0.586,0.053c-0.533-0.053-0.906,0.213-1.439,0.213c-0.799,0.48-1.652,0.799-2.451,1.226
		c-0.373,0.267-0.8,0.426-1.119,0.746c-0.586,0.16-0.746,0.853-1.438,0.746c-1.279-0.373-2.611-0.586-3.944-0.906
		c-0.532,0-0.213-0.479,0-0.586c0.373-0.107,0.427-0.427,0.8-0.533c0.213-0.32,0.586-0.16,0.746-0.586
		c2.185-1.119,4.583-1.919,7.301-1.759c0-0.213,0-0.373,0-0.586c-0.586-2.239-2.132-4.264-4.21-5.649
		c-0.213-0.106-0.533-0.426-0.267-0.586c1.386,0.16,2.558,0.746,3.784,1.333c1.172,1.172,3.091,1.226,3.837,3.038
		c0.373,0.32,0.267-0.32,0.532-0.374c0.32-1.279-0.159-2.238-0.319-3.411c0.054-0.159,0.213-0.159,0.319-0.213
		c0.533-0.853,1.546-1.386,2.292-2.398c0.426,0.16,0.746,0.32,1.119,0.48c0.053,0.106-0.106,0.16-0.054,0.32
		c0.533,1.652,0.267,3.677-0.267,5.275c-0.106,0.8-0.905,1.386-0.853,2.132c0.32,0.16,0.64-0.106,0.906-0.16
		c2.771-1.226,6.821-1.226,9.539,0c1.173,0.693-0.586,0.639-0.853,1.119c-0.427,0.32-1.065,0.533-1.546,0.853
		c-0.319,0.213-0.799,0.427-1.172,0.64c-0.959-0.426-2.078-0.586-3.091-0.906c-0.693-0.053-1.439-0.32-2.078-0.053
		c0,0.107,0,0.213,0.106,0.32c2.878,0.64,5.648,2.238,7.461,4.903c-1.546,0.213-2.984-0.106-4.583,0
		c-0.32-0.16-0.48-0.639-0.96-0.693c-0.532,0.533-1.172,1.12-1.386,1.865c0.054,0.479-0.479,0.799-0.106,1.226
		c1.492-0.16,2.665,0.374,4.104,0.799c0.106-0.053,0-0.16,0.054-0.266c1.438-0.959,3.783-0.853,5.436-0.373
		c0.054-0.853,0-1.865-0.319-2.718c-0.107-0.266-0.32-0.479-0.427-0.799c-0.267-0.053-0.16-0.32-0.267-0.426
		c0-0.053,0.054-0.107,0.106-0.107c0.106,0.054,0.267,0.107,0.373,0.16c0.96,0.799,2.186,1.599,2.292,2.878
		c0.16,0.266,0.16,0.799,0.532,0.746c0.16-0.16,0.267-0.32,0.32-0.533c0.16-0.479,0.267-1.119,0.319-1.706
		c0.16-0.267,0.533-0.319,0.8-0.479c0.533,0,0.959-0.479,1.386-0.639c0.053,0.053,0.106,0.106,0.159,0.16
		c-0.053,0.586-0.159,1.119-0.426,1.599c0.053,0.373-0.373,0.533-0.427,0.853c0.16,0.373-0.426,0.266-0.267,0.639
		c-0.373,0.266-0.853,0.586-0.905,1.012c1.438,0.214,3.197,0.053,4.477,1.013c0.373,0.213,0.853,0.533,1.012,0.906
		c-0.745,0.267-1.545,0.32-2.345,0.48c-0.106,0-0.319,0-0.319-0.16c-0.16-0.054-0.319-0.107-0.479-0.213c0,0,0,0-0.054-0.053
		c-0.159-0.267-0.373-0.213-0.64-0.213c-0.053,0.213,0.107,0.426,0.373,0.479c0.054,0.053,0.054,0.106,0.16,0.16
		c0.054,0.373,0.32,0.64,0.533,0.906c0.213,0.479,0.426,0.959,0.64,1.385c0.053,0.106,0.106,0.32,0,0.426
		c-0.107,0-0.267-0.053-0.373-0.053c-0.64-0.32-1.386-0.479-2.079-0.693c-0.426-1.226-1.065-2.558-2.185-3.357
		c-0.64-0.213-1.226,0.213-1.599,0.64c-0.373,0.107-0.64,0.16-0.853,0.533c-0.533,0.16-0.959,0.853-1.332,1.12
		c-0.107,0.533-1.279,0.746-0.854,1.332c2.346,0.639,4.743,1.119,7.302,1.172c0.053,0.053,0.106,0.107,0.159,0.16
		c0,0.106-0.106,0.16-0.159,0.213c-38.051,0-76.154,0-114.204,0c0-0.053-0.053-0.107-0.107-0.16
		c-0.053-0.106,0.107-0.106,0.107-0.213c2.292-0.373,4.423-1.172,6.768-1.439c0.319-0.16,1.065,0.106,0.959-0.479
		c-0.906-1.119-2.185-1.972-3.464-2.611c-0.746-0.32-1.013,0.48-1.492,0.906c-0.053,0.267-0.533,0.213-0.373,0.586
		c-0.533,0.479-0.693,1.172-0.906,1.865c-0.16,0.16-0.533-0.053-0.693,0.213c-0.533,0.16-1.066,0.266-1.599,0.426
		c-0.16,0.053-0.267-0.106-0.213-0.213c0.32-0.267,0.16-0.906,0.533-1.172c-0.106-0.373,0.427-0.32,0.373-0.64
		c0.107-0.16,0.267-0.32,0.427-0.479c0.053-0.054,0.053-0.107,0.106-0.16c0.053-0.053,0.106-0.106,0.16-0.16
		c0.213-0.106,0.32-0.32,0.267-0.533c-0.16,0-0.426-0.053-0.64,0.267c0,0.054-0.053,0.054-0.106,0.054
		c-0.053,0.053-0.106,0.053-0.16,0.106c-0.427,0.639-1.119,0.213-1.652,0.213c-0.533-0.054-1.119-0.213-1.492-0.427
		c0.213-0.053,0.16-0.373,0.426-0.373c1.386-1.119,3.251-1.652,5.169-1.386c0.106-0.693-0.853-0.799-0.959-1.386
		c-0.213-0.213-0.32-0.373-0.48-0.586c-0.266-0.746-0.639-1.438-0.586-2.238c0.426-0.107,0.853,0.213,1.332,0.373
		c0.053,0.106,0.213,0.106,0.373,0.213c1.226,0.32,0.479,1.812,1.172,2.558c0.107,0.107,0.32,0.107,0.426,0
		c0.054-0.319,0.107-0.692,0.267-0.958c0.106-0.32,0.16-0.586,0.267-0.906c0.053-0.106,0.16-0.213,0.213-0.32
		c0.267-0.267,0.533-0.533,0.799-0.799c0.213,0,0.427-0.267,0.693-0.32c-0.053-0.32,0.373-0.16,0.533-0.32
		c0.16,0.054,0.053,0.213,0.106,0.32c-0.853,0.959-1.066,2.398-0.906,3.73c1.172-0.533,2.824-0.48,4.157-0.267
		c0.426,0.213,1.119,0.213,1.226,0.693c-0.107,0.16-0.32,0.213-0.426,0.267c0,0.106,0,0.213,0,0.32
		c0.639,0.16,1.492-0.053,2.238-0.106c0.053-1.173-0.586-2.079-1.333-2.985c0-0.106-0.053-0.16-0.373-0.319
		c-0.32-0.16-0.426,0.16-0.586,0.319c-1.226,0.16-2.611,0-3.784,0.107c-0.32-0.107,0-0.32,0-0.479
		c0.373-0.053,0.106-0.374,0.479-0.533c0.106-0.533,0.64-0.32,0.906-0.746c0.16-0.16,0.213-0.533,0.533-0.48
		c0.266-0.373,0.639-0.266,0.799-0.692c0.959-0.32,1.865-0.906,2.877-1.172c0.213-0.267-0.106-0.373-0.32-0.427
		c-1.226,0.213-2.451,0.267-3.57,0.853c-1.119-0.586-2.078-1.119-3.197-1.706c0-0.053,0-0.106,0-0.213
		c0.213-0.106,0.319-0.373,0.639-0.267c2.238-1.066,5.489-1.066,7.674,0c0.213,0.107,0.533,0.213,0.799,0.16
		c0.106-0.373-0.213-0.586-0.32-0.799c-0.533-1.599-1.013-3.784-0.373-5.596c0.16-0.16-0.106-0.64,0.213-0.853
		c0.427,0.479,1.066,1.066,1.546,1.599c0.479,0.267,0.906,0.64,0.959,1.226c-0.213,1.013-0.533,1.972-0.426,3.144
		c0.106,0.213-0.053,0.747,0.426,0.64c0.32-0.266,0.32-0.746,0.693-0.853c0.267-0.692,1.226-1.225,1.599-1.865
		c0.373-0.053,0.64-0.373,0.799-0.639c-0.533-0.533-1.439-0.853-1.972-1.386c0.213-0.267,0.586-0.16,0.853-0.373
		c0.32-0.106,0.586-0.266,0.959-0.266c2.398-1.066,5.382-1.492,8.1-0.853c0.586,0.213,1.119,0.426,1.706,0.639
		c0.16,0.16,0.693,0.32,0.266-0.267c0-0.373-0.319-0.692-0.373-1.012c-0.853-1.439-1.172-3.198-0.799-5.01
		c0.053-0.319,0.107-0.746,0.213-1.172c0.053-0.427,0.106-0.959,0.479-1.173c1.119,1.439,2.185,2.878,3.411,4.21
		c0,0.959-0.479,1.759-0.64,2.665c-0.053,0.746-0.16,1.599,0.107,2.291c0.426,0.213,0.213-0.319,0.533-0.319
		c-0.106-0.427,0.533-0.373,0.426-0.747c0.586-0.692,1.172-1.385,1.918-2.078c0,0,0.053,0,0.107,0c0.106-0.053,0.319,0,0.213-0.213
		c0.32-0.054,0.586-0.374,0.799-0.479c0.213-0.107,0.48-0.267,0.693-0.427c0.64-0.213,1.172-0.693,1.865-0.853
		c0.746-0.266,1.439-0.586,2.185-0.746C288.561,362.298,288.774,362.245,288.934,362.245L288.934,362.245z"/>
	<path fill-rule="evenodd" clip-rule="evenodd" fill="#F4F4F4" d="M356.827,362.511c0.426,0.639,1.545,0.586,1.226,1.599
		c-0.106,0.373,0,0.853-0.373,1.066c0.267,0.586-0.427,0.799-0.32,1.333c-0.319,0.479-0.159,1.172-0.479,1.651
		c-0.106,0.427-0.053,0.746-0.479,1.066c-0.746-0.053-1.279-0.639-1.918-0.906c-0.16-0.266,0-0.586-0.16-0.853
		c-0.533-0.054-1.066-1.066-1.599-0.374c-0.746,0.107-1.173-0.639-1.813-0.799c-0.266-0.106-0.106-0.373-0.159-0.586
		c1.438-1.385,2.771-2.558,4.316-3.837C355.814,361.552,356.134,362.511,356.827,362.511L356.827,362.511z"/>
	<path fill-rule="evenodd" clip-rule="evenodd" fill="#F4F4F4" d="M256.639,363.204c0.586,0.267,1.172,0.693,1.599,1.173
		c0.32,0.799,0.586,1.599,0.479,2.451c0.107,0.266-0.266,0.373-0.16,0.64c-0.479,0.586-1.013,1.172-1.705,1.599
		c-0.374,0-0.48,0.373-0.8,0.426c-1.332,0.32-2.771-0.053-3.677-1.279c-0.533-0.853-0.586-2.131-0.267-3.144
		c0.853-1.386,2.292-2.132,3.89-2.079C256.106,363.257,256.479,363.044,256.639,363.204L256.639,363.204z"/>
	<path fill-rule="evenodd" clip-rule="evenodd" fill="#F4F4F4" d="M362.05,366.082c0.479,0.373,0.905,0.906,1.438,1.119
		c0.319,0.693-0.213,1.066-0.16,1.758c0.054,0.107,0.16,0,0.267,0.054c0.479-0.32,1.226-0.533,1.759-0.374
		c0.426,0.16,0.799,0.853,1.332,1.066c0,0.267,0.054,0.48-0.213,0.64c-0.693,0.213-1.332,0.586-2.132,0.692
		c-0.106,0.32-0.427,0-0.533,0.267c-0.373,0.053-0.639,0.213-0.905,0.319c-0.533,0.48-0.906,0.853-1.226,1.439
		c-0.854,0.373-1.386-0.64-2.025-1.066c-0.479-0.853,1.013-1.226,1.065-2.025c0.32-1.279,0.479-2.611,0.906-3.89
		C361.783,366.082,361.89,366.082,362.05,366.082L362.05,366.082z"/>
	<path fill-rule="evenodd" clip-rule="evenodd" fill="#F4F4F4" d="M254.88,390.383c0.053,1.172,0.107,2.345,0.213,3.57
		c-1.439,0.107-2.825,0.32-4.263,0.32c-0.213-0.64-0.213-1.386-0.32-2.079c-1.226-0.16-2.611,0-3.837-0.16
		c-0.107,0.853-0.267,1.705-0.427,2.505c0.427,0.213,0.906,0.319,1.439,0.373c2.292,0.586,4.743,1.012,6.981,1.812
		c0.426,0.318,0.479,0.959,0.853,1.438c0.586,1.279,0.959,3.039,0.479,4.584c-0.213-0.107-0.213,0.16-0.266,0.213
		c-1.119,0.959-2.825,1.492-4.264,2.025c-2.931,0.32-5.755-0.48-8.58-0.854c-0.533-0.053-1.066-0.16-1.599-0.266
		c-0.106-1.227-0.053-2.559-0.053-3.838c0.107-0.053,0-0.158,0.107-0.213c1.812,0,3.677,0,5.489,0
		c0.053,0.693-0.106,1.492-0.16,2.238c1.226,0.053,2.398,0.16,3.677,0.213c0.32-0.906,0.799-1.811,0.533-2.877
		c-1.066-0.959-2.718-1.012-4.05-1.545c-1.599-0.213-3.091-0.641-4.636-0.959c-0.106-0.055,0-0.16-0.16-0.214
		c-0.053-2.078-0.106-4.104-0.16-6.182c0.053-0.053,0.106-0.106,0.16-0.213c2.984-0.746,6.395-1.545,9.54-0.64
		C252.695,389.903,253.761,390.169,254.88,390.383L254.88,390.383z"/>
	<path fill-rule="evenodd" clip-rule="evenodd" fill="#F4F4F4" d="M299.166,389.317c0.16,0.905,0.533,1.812,0.586,2.718
		c0.373,1.972,0.959,3.89,1.119,5.862c0.16,0.639,0.213,1.279,0.479,1.865c0.106,0,0.16-0.107,0.213-0.16
		c0.427-3.25,1.119-6.395,1.546-9.646c0.053-0.053,0.106-0.106,0.16-0.16c1.279,0,2.558,0.16,3.89,0.213
		c-0.319,2.025-0.746,4.104-0.853,6.182c-0.479,1.705-0.693,3.623-1.172,5.275c-0.426,1.332-0.586,2.719-0.959,3.996
		c-2.292,0.107-4.743,0.107-7.034,0c-1.279-5.275-2.718-10.604-3.89-15.933c0-0.107,0.16,0,0.213-0.16
		C295.382,389.37,297.247,389.104,299.166,389.317L299.166,389.317z"/>
	<path fill-rule="evenodd" clip-rule="evenodd" fill="#F4F4F4" d="M325.278,389.636c0.054,0.053,0.054,0.053,0.106,0.106
		c1.332,2.878,1.013,6.396,2.078,9.433c0.107,0.586,0.054,1.064,0.587,1.385c0.213-0.266,0.106-0.746,0.213-1.119
		c0.479-3.197,1.226-6.341,1.492-9.646c0.054-0.106,0.213,0,0.267-0.16c1.226,0.053,2.505-0.053,3.73,0.106
		c-0.32,2.398-1.226,4.423-1.652,6.715c-0.479,1.333-0.799,2.718-1.065,4.21c-0.32,0.053-0.16,0.479-0.267,0.691
		c-0.214,1.066-0.64,2.08-0.853,3.199c0.053,0.158-0.106,0.053-0.16,0.158c-2.078,0-4.157,0.268-6.182,0.055
		c-1.332-5.01-2.984-9.913-3.997-15.135c0-0.106,0.16,0,0.213-0.106c1.706-0.16,3.624-0.267,5.383-0.213
		C325.225,389.423,325.278,389.53,325.278,389.636L325.278,389.636z"/>
	<path fill-rule="evenodd" clip-rule="evenodd" fill="#F4F4F4" d="M287.335,390.276c0.64,0.373,1.119,0.64,1.705,1.226
		c0.64,0.373,0.959,1.119,1.333,1.759c0.586,1.172-0.106,2.398-0.799,3.251c-0.64,0.426-1.226,1.438-2.132,1.545
		c0.053,0.32-0.639,0.213-0.32,0.586c1.013,0.641,2.079,1.332,3.038,1.918c0.48,1.066,0.213,2.559,0.48,3.73
		c0.16,0.373,0.053,0.959,0.053,1.492c-2.025,0-4.05-0.32-6.075-0.533c-0.107,0,0-0.158-0.16-0.213
		c0.213-1.332,0.267-2.664,0.213-4.104c-0.213-0.639-0.906-0.479-1.386-0.693c-0.693,0-1.385-0.053-2.025,0.055
		c0.053,1.492-0.053,3.197,0.053,4.689c0,0.053-0.053,0.107-0.106,0.16c-1.759,0-3.411-0.053-5.063-0.213
		c-0.106-5.063-0.053-10.179-0.053-15.295c0.053,0,0.053-0.053,0.107-0.106c3.41,0,7.141-0.692,10.285,0.266
		C286.749,389.85,287.068,390.222,287.335,390.276L287.335,390.276z"/>
	<path fill-rule="evenodd" clip-rule="evenodd" fill="#F4F4F4" d="M363.968,389.636c1.013,0.64,2.078,1.279,3.038,2.132
		c0.959,1.013,1.385,2.238,1.012,3.624c-0.266,0.32-0.319,0.746-0.746,1.012c-0.266,0.693-0.959,0.799-1.385,1.279
		c-0.427,0.107-0.746,0.586-1.279,0.746c0.959,0.959,2.291,1.439,3.304,2.291c0.16,1.6,0.32,3.305,0.427,4.957
		c0,0.158-0.16,0-0.213,0.158c-2.025-0.105-4.051-0.318-6.022-0.639c0-1.492,0.373-2.771,0.213-4.264
		c-0.799-1.012-2.397-0.746-3.464-0.479c0.107,0.691-0.053,1.598,0.107,2.291c0.159,0.639,0.053,1.545,0.106,2.291
		c-1.813,0.213-3.624,0.055-5.329-0.105c-0.16-5.063-0.054-10.179-0.107-15.295c0.054,0,0.107-0.053,0.16-0.106
		C357.146,389.477,360.717,388.997,363.968,389.636L363.968,389.636z"/>
	<path fill-rule="evenodd" clip-rule="evenodd" fill="#F4F4F4" d="M347.234,389.477c1.065,1.226,1.546,2.984,2.078,4.53
		c0.64,2.025,1.226,4.156,0.693,6.394c-0.267,1.334-0.32,2.826-0.746,4.104c-2.825,0.32-5.649,0.693-8.42,1.066
		c-1.119-0.373-2.398-0.854-2.932-2.025c-0.853-2.717-2.558-5.383-1.705-8.419c0.16-0.32,0.267-0.586,0.427-0.906
		c0.106-0.426,0.319-0.799,0.426-1.226c0.479-0.906,0.959-1.972,1.492-2.824C341.319,389.689,344.25,389.263,347.234,389.477
		L347.234,389.477z"/>
	<path fill-rule="evenodd" clip-rule="evenodd" fill="#F4F4F4" d="M316.485,389.583c-0.054,0.746,0.054,1.599-0.054,2.238
		c-0.373,4.477-0.426,9.007-0.799,13.429c-0.054,0.055-0.106,0.107-0.16,0.16c-1.386-0.16-2.824-0.266-4.264-0.426
		c-0.106-0.053,0-0.16-0.106-0.213c0-5.063-0.532-9.913-0.64-14.976c0-0.106,0.16,0,0.214-0.16
		C312.595,389.636,314.566,389.423,316.485,389.583L316.485,389.583z"/>
	<path fill-rule="evenodd" clip-rule="evenodd" fill="#F4F4F4" d="M271.934,389.85c0.32,2.718,1.279,5.596,0.32,8.313
		c-0.373,1.973-0.799,3.785-1.012,5.863c-0.213,0.426-0.747,0.479-1.119,0.746c-3.145,1.332-6.875,0.266-10.019-0.426
		c-0.533-2.133-1.172-4.318-1.599-6.555c0.32-2.452,0.533-4.904,0.639-7.408c0.054-0.054,0.107-0.107,0.16-0.161
		c1.279-0.053,2.451,0.214,3.73,0.214c0,0.106,0.16,0.106,0.106,0.213c-0.479,3.837-0.267,7.994-0.693,11.777
		c0.959,0.055,2.025-0.105,3.091-0.16c0.053-0.053,0.107-0.16,0.16-0.213c0.533-2.877,1.172-5.808,0.533-8.792
		c-0.32-1.066-0.266-2.292-0.586-3.304c0.053-0.16,0.16-0.053,0.213-0.16C267.884,389.85,269.962,389.743,271.934,389.85
		L271.934,389.85z"/>
	<path fill-rule="evenodd" clip-rule="evenodd" fill="#F4F4F4" d="M332.153,432.375c-0.267,0.588,0.692,1.174-0.106,1.494
		c-0.32,0-0.587,0.053-0.746,0.318c0,0.533,0.319,0.959,0.319,1.545c0.16,0.428,0.16,0.906,0.479,1.334
		c0.106,0.373,0.054,0.852-0.427,0.959c-0.372,0.053-0.692,0.16-1.065,0.213c-0.16,0.213-0.479,0.16-0.692,0.053
		c-0.267-0.213-0.054-0.693-0.214-0.959c-0.373-0.852-0.319-1.813-0.853-2.611c-0.373-0.105-0.692,0.213-1.013,0
		c0-0.639-1.012-1.652,0.054-2.025c1.065-0.213,2.132-0.426,3.091-0.852C331.46,431.844,332.1,431.844,332.153,432.375
		L332.153,432.375z"/>
	<path fill-rule="evenodd" clip-rule="evenodd" fill="#F4F4F4" d="M282.805,434.4c0.373,1.227,0.053,2.506-1.013,3.412
		c-1.332,0.959-3.25,0.586-4.53-0.215c-0.746-0.746-1.492-1.758-0.959-2.877c0-0.533,0.213-0.959,0.533-1.385
		c0.64-0.746,1.439-1.387,2.452-1.332C280.887,431.896,282.219,433.068,282.805,434.4L282.805,434.4z"/>
	<path fill-rule="evenodd" clip-rule="evenodd" fill="#F4F4F4" d="M324.319,434.027c0.106,0.48,0.106,1.014,0,1.492
		c-0.16,0.213-0.64-0.053-0.693,0.32c0.587,0.373,1.333,0.641,1.813,1.227c0,0.586,0.319,1.225,0,1.811
		c-0.373,0.373-0.693,0.693-1.173,0.906c-0.959,0.107-1.865,0.373-2.878,0.266c-0.426-0.479-0.373-1.277-0.373-1.811
		c0.214-0.426,0.8,0,1.066-0.373c-0.586-0.586-1.972-0.906-1.759-2.078c0.106-0.693,0.373-1.492,1.119-1.76
		c0.853-0.213,1.812-0.479,2.664-0.266C324.159,433.869,324.266,433.975,324.319,434.027L324.319,434.027z"/>
	<path fill-rule="evenodd" clip-rule="evenodd" fill="#F4F4F4" d="M288.934,434.135c0.267,0.16,0.32,0.373,0.32,0.693
		c-0.32,0.266,0,0.799-0.32,1.119c0,0.639-0.32,1.225-0.213,1.865c0.266,0.373,0.746,0.213,1.065,0.16
		c0.427-1.121,0.427-2.346,0.693-3.518c0.64-0.107,1.279,0.213,1.972,0.213c0.639,0.479,0,1.064,0.053,1.598
		c-0.373,1.547-0.107,3.518-1.918,4.211c-1.066,0.16-1.865-0.32-2.825-0.32c-0.64-0.426-1.332-0.959-1.545-1.705
		c0.106-1.545,0.373-3.037,0.64-4.477c0.426-0.426,0.959,0.16,1.492,0.053C288.507,434.135,288.721,434.135,288.934,434.135
		L288.934,434.135z"/>
	<path fill-rule="evenodd" clip-rule="evenodd" fill="#F4F4F4" d="M316.006,435.254c0.213,0.852,0.692,1.385,0.799,2.291
		c0.427,0.801,0.587,1.705,1.013,2.451c0.054,0.32,0,0.641-0.373,0.746c-0.692-0.105-1.812,0.641-2.132-0.318
		c-0.053-0.055-0.106-0.107-0.159-0.16c-0.479,0.266-1.439-0.268-1.546,0.426c-0.373,0.693-1.332,0.373-2.025,0.586
		c-0.213-0.053-0.532-0.213-0.426-0.533c0-0.16-0.054-0.318,0.16-0.426c0.053-1.172,0.373-2.291,0.532-3.465
		c0.32-0.105,0-0.479,0.32-0.586c0-0.426,0-0.904,0.479-1.172c1.013-0.053,2.185-0.266,3.145-0.053
		C315.846,435.094,315.899,435.146,316.006,435.254L316.006,435.254z"/>
	<path fill-rule="evenodd" clip-rule="evenodd" fill="#F4F4F4" d="M300.445,435.361c0.213,0.479,0.16,1.172,0.053,1.705
		c-0.213,0.479-1.066-0.107-1.226,0.479c0,1.227-0.32,2.293-0.213,3.57c-0.746,0.107-1.812,0.213-2.452-0.213
		c0.054-1.225,0.107-2.504,0.213-3.73c-0.32-0.426-1.119,0-1.119-0.639c0.213-0.428-0.267-1.279,0.426-1.492
		C297.514,435.254,299.059,435.146,300.445,435.361L300.445,435.361z"/>
	<path fill-rule="evenodd" clip-rule="evenodd" fill="#F4F4F4" d="M306.04,435.627c0.267,1.066-0.16,2.131,0.107,3.145
		c0.426,0.373,1.439-0.107,1.598,0.586c0,0.586,0,1.172,0,1.758c-0.106,0.107-0.266,0.213-0.373,0.268c-1.119,0-2.398,0-3.41,0
		c-0.106-0.055-0.16-0.107-0.213-0.213c-0.16-1.707-0.053-3.518-0.106-5.33c0.16-0.16,0.213-0.426,0.426-0.479
		C304.761,435.68,305.507,435.041,306.04,435.627L306.04,435.627z"/>
	<path fill-rule="evenodd" clip-rule="evenodd" fill="#161B1B" d="M313.768,352.652c0.106,0.533-0.213,0.959-0.586,1.173
		c-0.267,0.106-0.746,0.106-1.013,0c-0.373-0.267-0.533-0.586-0.587-0.959c0.267-0.426,0.48-0.906,1.066-0.853
		C313.074,352.013,313.555,352.279,313.768,352.652L313.768,352.652z"/>
	<path fill-rule="evenodd" clip-rule="evenodd" fill="#161B1B" d="M340.2,357.449c0.106,0.373-0.054,0.746-0.479,0.586
		c-0.214,0.053-0.32-0.053-0.48-0.16c-0.159,0-0.053-0.267-0.106-0.426c0.267-0.16,0.373-0.64,0.693-0.32
		C339.986,357.075,340.146,357.342,340.2,357.449L340.2,357.449z"/>
	<path fill-rule="evenodd" clip-rule="evenodd" fill="#161B1B" d="M355.654,364.749c0.106,0.213-0.106,0.16-0.267,0.32
		c0.054,0.106,0.054,0.213,0.054,0.32c-0.106,0.159-0.267,0.213-0.479,0.213c-0.214-0.16-0.373-0.479-0.214-0.746
		c0.107,0,0.107-0.16,0.32-0.107c0-0.106,0.053-0.16,0.106-0.266C355.494,364.323,355.494,364.696,355.654,364.749L355.654,364.749z
		"/>
	<path fill-rule="evenodd" clip-rule="evenodd" fill="#161B1B" d="M256,365.495c0.267,0.374,0.426,1.013,0.107,1.439
		c-0.32,0.32-0.746,0.639-1.226,0.426c-0.213-0.053-0.426-0.213-0.586-0.373c-0.213-0.479,0.106-0.906,0.32-1.333
		C254.934,365.335,255.573,365.229,256,365.495L256,365.495z"/>
	<path fill-rule="evenodd" clip-rule="evenodd" fill="#161B1B" d="M280.567,434.828c0,0.213,0.267,0.639,0.053,0.959
		c-0.32,0.318-0.799,0.693-1.332,0.426c-0.48-0.053-0.533-0.426-0.746-0.799c-0.16-0.48,0.32-0.799,0.639-1.014
		C279.661,434.188,280.194,434.4,280.567,434.828L280.567,434.828z"/>
	<path fill-rule="evenodd" clip-rule="evenodd" fill="#161B1B" d="M314.727,438.186c-0.213,0.213-0.586,0.16-0.853,0.053
		c0-0.32,0-0.854,0.319-1.066C314.62,437.279,314.514,437.865,314.727,438.186L314.727,438.186z"/>
	<path fill-rule="evenodd" clip-rule="evenodd" fill="#36A04D" d="M309.664,370.292c0.692,1.386,0.799,3.144,1.119,4.743
		c0.053,1.013,0.267,2.186,0.106,3.305c-1.386-0.48-2.664-1.172-4.156-1.439c-1.279-0.106-2.665-0.266-3.997-0.213
		c-0.32,0.106-0.48,0.106-0.586,0.106c-0.106-0.213,0.16-0.267,0.267-0.426c0.426-0.479,0.853-0.906,1.226-1.333
		c0.373-0.319,0.533-0.692,0.906-0.959c-0.106-0.373,0.48-0.266,0.32-0.64c0.64-1.066,1.013-2.238,1.279-3.517
		c0.959-0.373,2.238-0.213,3.25-0.16C309.504,369.972,309.61,370.079,309.664,370.292L309.664,370.292z"/>
	<path fill-rule="evenodd" clip-rule="evenodd" fill="#36A04D" d="M275.397,370.345c-1.065,0.426-2.292,0.533-3.304,0.959
		c-0.213,0.266-0.586,0.106-0.693,0.426c-0.32,0.16-0.746,0.213-0.853,0.48c-1.119,0.373-1.865,1.438-2.825,2.185
		c-0.106,0-0.32,0.053-0.373-0.106c0.32-0.906,0.426-1.919,0.959-2.771c0.106-0.32,0.266-0.693,0.533-0.799
		c0.426-0.16,0.693,0.533,1.066,0.106c0.479,0,0.799-0.266,1.279-0.266c0.586-0.267,1.226-0.32,1.865-0.426
		c0.799,0,1.599-0.32,2.345,0C275.397,370.185,275.397,370.292,275.397,370.345L275.397,370.345z"/>
	<path fill-rule="evenodd" clip-rule="evenodd" fill="#36A04D" d="M311.529,370.398c0.16,0.053,0.319,0.106,0.479,0.16
		c1.279,0.906,2.771,2.025,3.464,3.411c0.106,0.16-0.106,0.053-0.106,0.16c-0.959,0-1.972,0-2.824,0
		c-0.32-1.172-0.906-2.239-1.386-3.358c0-0.106-0.054-0.106,0-0.16c-0.32-0.053-0.267-0.266-0.267-0.479
		c0.213-0.053,0.427,0.053,0.479,0.267C311.423,370.398,311.476,370.398,311.529,370.398L311.529,370.398z"/>
	<path fill-rule="evenodd" clip-rule="evenodd" fill="#36A04D" d="M280.567,371.89c0.533,0.586,0.959,1.439,1.386,2.079
		c-0.16,0.32-0.426,0.586-0.746,0.799c-0.32,0.107-0.533,0.64-0.906,0.64c-0.373,0.533-0.906,1.013-1.279,1.492
		c-0.053,0.426-0.426,0.693-0.479,1.066c-0.16,0-0.32,0.053-0.426-0.054c-1.013-1.226,0.906-3.464-1.226-3.997
		c-0.426-0.373-1.012-0.586-1.279-1.119c0.106-0.267,0.373-0.267,0.373-0.48c1.013-0.586,2.132-0.906,3.197-1.332
		C279.821,370.771,280.087,371.57,280.567,371.89L280.567,371.89z"/>
	<path fill-rule="evenodd" clip-rule="evenodd" fill="#36A04D" d="M301.883,372.53c0,0,0,0-0.053,0
		c-0.32,0.959-0.373,2.025-1.066,2.878c-0.053,0-0.16,0-0.266,0c-0.213-1.119-0.533-2.238-1.119-3.251
		c-0.267-0.639,0.586-0.267,0.799-0.267c0.106,0.107,0.32,0.054,0.479,0.054c0.32-0.32,0.64-0.426,1.066-0.693
		C302.31,371.357,301.724,372.05,301.883,372.53L301.883,372.53z"/>
	<path fill-rule="evenodd" clip-rule="evenodd" fill="#36A04D" d="M275.078,373.063c-0.267,2.238,0.799,3.836,1.652,5.329
		c-0.64,0.16-1.226-0.266-1.918-0.213c-0.533-0.053-1.279,0.16-1.599-0.213c0.373-0.426,0.906-0.374,1.385-0.48
		c0.107-0.16,0.746,0.054,0.426-0.373c-0.746-0.692-1.652-1.172-2.451-1.705c0.106-0.586,0.693-0.693,1.013-1.279
		c0.319-0.16,0.586-0.747,1.012-0.747C274.651,373.223,274.812,373.063,275.078,373.063L275.078,373.063z"/>
	<path fill-rule="evenodd" clip-rule="evenodd" fill="#36A04D" d="M347.021,375.514c0.64,0.693,1.438,0.906,1.918,1.706
		c0.214,0.479-0.319,0.213-0.479,0.426c-0.533,0-0.692,0.586-1.226,0.533c-0.586,0.586-1.226,1.172-1.652,1.865
		c-0.319,0.16-0.213-0.267-0.319-0.373c-0.054-0.693,0-1.279,0.213-1.865c-0.64-0.533-1.226-1.279-1.918-1.706
		c-0.32,0.799-0.267,1.919-0.054,2.771c0.106,0.586,0.533,1.066,0.693,1.599c-0.693,0.267-1.119-0.426-1.813-0.267
		c-0.959-0.16-2.025-0.053-2.878,0.213c-0.267,0.053-0.426-0.16-0.373-0.426c0.427-0.959,0.853-1.812,1.546-2.665
		c0.16-0.159,0.319-0.426,0.533-0.639c0-0.426,0.639-0.426,0.586-0.906c0.586-0.533,1.172-1.119,1.759-1.705
		C344.836,374.235,345.902,374.875,347.021,375.514L347.021,375.514z"/>
	<path fill-rule="evenodd" clip-rule="evenodd" fill="#36A04D" d="M282.858,375.141c0.479,1.226,1.333,2.079,1.492,3.411
		c-1.066-0.053-2.078,0.053-3.144-0.107c0-0.692,0.16-1.332,0.426-1.918c0.267-0.533,0.479-0.959,0.906-1.438
		C282.646,375.034,282.699,375.248,282.858,375.141L282.858,375.141z"/>
	<path fill-rule="evenodd" clip-rule="evenodd" fill="#36A04D" d="M270.814,378.339c-0.106,0.106-0.266,0.266-0.426,0.426
		c-0.373,0-0.693,0.32-1.119,0.373c-0.053,0-0.16,0-0.266,0c-1.013-1.013-2.132-2.345-3.357-3.198
		c-0.054-0.107-0.054-0.266-0.054-0.426c0.533-0.106,1.173,0.16,1.652,0.373C268.576,376.474,269.909,377.273,270.814,378.339
		L270.814,378.339z"/>
	<path fill-rule="evenodd" clip-rule="evenodd" fill="#36A04D" d="M266.019,377.752c0.053,0.106,0.106,0.479,0.426,0.426
		c0.586,1.066,1.172,1.972,1.652,3.091c0.053,0.213,0,0.533-0.373,0.427c-1.119-0.107-2.345,0.053-3.411,0.426
		c-0.267-0.053-0.213-0.213-0.213-0.426c0.853-1.173,1.172-2.771,0.692-4.21c-0.479,0.054-0.586,0.693-1.119,0.746
		c-0.16,0.32-0.533,0.64-0.746,0.853c0.106,0.799,0.266,1.705,0,2.451c-0.533,0.106-0.48-0.48-0.693-0.693
		c-0.64-1.226-1.972-1.545-2.878-2.185c0.053-0.213-0.053-0.586,0.267-0.533c0.266-0.106,0.479-0.48,0.799-0.64
		c0.32-0.053,0.373-0.479,0.693-0.479c0.32-0.107,0.426-0.32,0.693-0.586c0.639-0.267,1.279-0.533,1.972-0.8
		C264.739,376.047,265.272,376.953,266.019,377.752L266.019,377.752z"/>
	<path fill-rule="evenodd" clip-rule="evenodd" fill="#36A04D" d="M315.206,377.433c1.439-0.426,3.091-0.426,4.637-0.32
		c0.16,0.427-0.213,0.373-0.427,0.533c-1.705,0.213-3.357,0.533-4.689,1.493c-0.267,0.267-0.586,0.746-1.065,0.746
		c0-1.066-0.16-2.079-0.373-3.038c-0.054-0.266-0.054-0.906,0.373-0.533C314.193,376.58,314.674,377.06,315.206,377.433
		L315.206,377.433z"/>
	<path fill-rule="evenodd" clip-rule="evenodd" fill="#36A04D" d="M301.883,379.671c0,0,0,0.053,0,0.106
		c1.333,1.332,1.812,2.931,2.398,4.477c0.213,0.107,0.479,0.107,0.586,0.32c0.053,0.16-0.16,0.16-0.213,0.267
		c-1.652,0.533-3.518,0.799-5.382,0.746c-2.665-0.16-5.436-0.106-7.887-0.799c-0.267-0.586,0.692-0.799,0.746-1.279
		c0.906-0.853,1.758-1.972,2.771-2.611c0.053-0.16,0.267-0.267,0.373-0.427c0.32,0.053,0.426-0.373,0.746-0.426
		c0.32-0.373,0.799-0.639,1.279-0.799c0.16-0.426,0.64-0.373,0.959-0.586c0.426-0.267,0.906-0.639,1.492-0.692
		C300.764,378.125,301.137,379.032,301.883,379.671L301.883,379.671z"/>
	<path fill-rule="evenodd" clip-rule="evenodd" fill="#36A04D" d="M323.253,378.445c1.599,1.652,2.505,3.624,3.357,5.542
		c0,0.586-0.746,0.267-1.119,0.586c-3.57,1.226-6.661-0.906-10.338-0.16c-0.587,0.053-1.173,0.373-1.759,0.053
		c0.213-1.012,0.16-2.131,0.267-3.197c0.106-0.16,0.267-0.053,0.373-0.106c1.278-0.107,3.144,1.333,3.89-0.373
		c0.427-0.267,0.746-0.746,1.173-1.013c0.053-0.267,0.426,0,0.479-0.32c0.906-0.639,1.972-0.906,2.984-1.279
		C322.827,378.179,323.253,378.179,323.253,378.445L323.253,378.445z"/>
	<path fill-rule="evenodd" clip-rule="evenodd" fill="#36A04D" d="M304.229,378.605c0.426,0.16,0.906,0.32,1.332,0.48
		c0.906,0.373,1.705,1.119,2.451,1.705c0.853-0.16,1.652-0.32,2.505-0.426c0.373,0.639-0.106,1.226-0.106,1.865
		c0,0.853-0.373,1.545-0.533,2.345c-0.213,0.479-0.906,0.213-1.278,0.213c-0.8-2.238-2.452-4.423-4.583-5.755
		c-0.106-0.054-0.213-0.107-0.267-0.16c-0.106-0.053-0.266-0.106-0.373-0.106c0-0.16-0.213-0.267-0.106-0.426
		c0.16-0.213,0.373,0.053,0.533,0.053C303.962,378.445,304.068,378.552,304.229,378.605L304.229,378.605z"/>
	<path fill-rule="evenodd" clip-rule="evenodd" fill="#36A04D" d="M284.83,381.323c0.16,0,0.32,0,0.48,0
		c0.106,0.799,0.319,1.492,0.426,2.239c-0.373,0.266-0.906,0.159-1.333,0.106c-0.586-0.692-1.226-1.438-1.972-1.918
		c-0.799-0.64-1.439-1.333-2.345-1.759c-0.106-0.106-0.106-0.267-0.106-0.426c0.639-0.107,1.226,0.213,1.812,0.32
		C282.912,380.044,283.818,380.843,284.83,381.323L284.83,381.323z"/>
	<path fill-rule="evenodd" clip-rule="evenodd" fill="#36A04D" d="M275.185,379.777c0.16,0.479-0.373,0.426-0.586,0.533
		c-0.106,0-0.16,0-0.266,0.054c-0.16,0.106-0.267,0.213-0.427,0.32c-0.319,0-0.426,0.373-0.692,0.426
		c-0.533,0.267-1.119,1.12-1.706,1.492c0,0.213-0.213,0.374-0.426,0.213c-0.373-0.853-0.746-1.652-1.226-2.505
		c-0.053-0.213-0.106-0.373-0.16-0.533c0.16,0.054,0.32,0.107,0.533,0.16c0.106,0,0.266,0.053,0.373,0.053
		c0.746,0.213,1.332,1.065,2.131,0.373c0.373-0.16,0.853-0.32,1.226-0.373c0.213-0.053,0.426-0.106,0.586-0.213
		c0.106-0.053,0.16-0.106,0.267-0.106C274.971,379.618,275.078,379.671,275.185,379.777L275.185,379.777z"/>
	<path fill-rule="evenodd" clip-rule="evenodd" fill="#36A04D" d="M280.62,381.589c0.106,0.427,0.64,0.64,0.64,1.065
		c0.16,0.48,0.853,0.64,0.479,1.279c-1.758,0.213-3.411,0.64-4.956,1.279c-1.812-0.106-3.357-0.693-5.116-0.852
		c0-0.107-0.107-0.16-0.054-0.32c0.746-0.374,1.759-0.107,2.505-0.479c0.213-0.267,0.426-0.427,0.479-0.747
		c0.586-0.533,1.066-1.438,1.812-1.759c0.053-0.319,0.426-0.213,0.479-0.426c0.267-0.213,0.693-0.213,0.853-0.479
		C278.968,379.351,279.714,381.056,280.62,381.589L280.62,381.589z"/>
	<path fill-rule="evenodd" clip-rule="evenodd" fill="#36A04D" d="M341.053,381.909c0.213,0.053,0.319-0.16,0.533-0.16
		c0.106-0.053,0.266-0.107,0.373-0.16c0.106,0.107,0.266,0.053,0.373,0.16c0,0.373-0.267,0.373-0.533,0.479
		c-0.106,0.106-0.213,0.213-0.32,0.32c-0.213,0.053-0.426,0.319-0.692,0.373c-0.267,0.427-0.692,0.586-0.8,1.066
		c-0.319,0-0.159,0.426-0.319,0.586c0.853,0.16,1.759-0.054,2.665-0.107c0.213-0.905,1.172-1.332,1.705-1.918
		c0.533-0.16,0.906-0.64,1.492-0.64c1.226,0.853,2.238,2.078,2.664,3.357c-3.41,0.054-6.661,0.374-10.019,0.533
		c-0.267-0.16-1.013,0.16-0.853-0.479c0.213-1.439,0.799-2.771,1.332-4.05c0.427-0.16,0.853,0.213,1.173,0.48
		C340.2,381.909,340.68,382.229,341.053,381.909L341.053,381.909z"/>
	<path fill-rule="evenodd" clip-rule="evenodd" fill="#36A04D" d="M348.727,382.335c0.692,0.266,1.173,1.065,1.919,0.959
		c0.692-0.16,1.438-0.213,2.078-0.586c-0.054-0.054-0.106-0.107-0.214-0.16c0-0.16,0-0.267,0-0.373
		c0.214,0.053,0.373,0.16,0.587,0.213c0.267,0.107,0.532,0.213,0.853,0.32c1.172-0.213,2.451-0.799,3.677-0.479
		c0,0.106,0,0.267,0,0.373c-0.586,0.213-1.172,0.427-1.599,0.853c-0.213,0.16-0.586,0.053-0.692,0.373
		c-0.427,0-0.427,0.479-0.853,0.533c-0.214,0.479-0.8,0.533-1.066,0.959c-0.16,0.16-0.426,0.479-0.692,0.64
		c-1.119-0.533-3.038,0.106-3.411-1.493c-0.426-0.905-1.492-1.438-2.024-2.238c-0.32,0.106-0.32-0.107-0.373-0.213
		c0-0.161,0-0.214,0.159-0.267c0.16,0,0.267,0.053,0.427,0.16C347.927,382.016,348.3,382.176,348.727,382.335L348.727,382.335z"/>
	<path fill-rule="evenodd" clip-rule="evenodd" fill="#36A04D" d="M256.692,383.135c0,0.107,0,0.213,0,0.32
		c-0.533,0.053-0.64,0.693-1.279,0.586c-0.799-0.479-1.599-1.013-2.505-1.226c0-0.106-0.106-0.16-0.053-0.266
		c0.586-0.267,1.386-0.16,2.025-0.106C255.52,382.602,256.213,382.762,256.692,383.135L256.692,383.135z"/>
	<path fill-rule="evenodd" clip-rule="evenodd" fill="#36A04D" d="M267.617,383.508c0.426,0,0.746-0.373,1.119-0.213
		c0.16,0.16,0.213,0.533,0.213,0.853c-0.426,0.16-0.906,0.16-1.332,0.266c-0.373-0.053-0.64-0.426-1.013-0.639
		c-0.106-0.054-0.213-0.107-0.32-0.107c-0.106-0.106-0.16-0.267-0.16-0.426c0.213-0.213,0.479,0,0.693,0.053
		C267.084,383.348,267.351,383.455,267.617,383.508L267.617,383.508z"/>
	<path fill-rule="evenodd" clip-rule="evenodd" fill="#36A04D" d="M261.329,383.508c-0.213,0.213-0.213,0.479-0.426,0.426
		c-0.106,0-0.213,0.053-0.267,0.053c-0.266,0.426-0.853,0.479-1.065,0.853c-0.8,0.16-0.959,1.332-2.025,0.906
		c-0.053-0.213-0.319-0.267-0.373-0.48c-0.106-0.053-0.16-0.159-0.266-0.213c-0.267-0.479,0.426-0.267,0.533-0.213
		c0.16,0,0.267,0.053,0.373,0.053c0.586,0.053,0.746-0.533,1.279-0.64c0.32-0.213,0.693-0.586,1.172-0.586
		c0.16-0.106,0.267-0.16,0.427-0.213c0.106-0.054,0.16-0.106,0.266-0.16C261.116,383.295,261.275,383.348,261.329,383.508
		L261.329,383.508z"/>
	<path fill-rule="evenodd" clip-rule="evenodd" fill="#36A04D" d="M265.166,384.68c0.16,0.373-0.266,0.427-0.479,0.533
		c-1.172,0.32-2.558,0.267-3.784,0.373c-0.213,0-0.213-0.213-0.213-0.373c0.479-0.373,0.853-0.693,1.172-1.172
		c0.16-0.16,0.373-0.374,0.586-0.533c0.107-0.053,0.213-0.107,0.32-0.16C263.674,383.562,264.473,384.094,265.166,384.68
		L265.166,384.68z"/>
	<path fill-rule="evenodd" clip-rule="evenodd" fill="#36A04D" d="M361.89,396.99c-0.853,0.32-1.919,0.053-2.824,0.213
		c-0.106-1.491-0.427-3.037-0.106-4.529c0.745,0,1.545,0,2.291,0C361.463,394.113,361.729,395.552,361.89,396.99L361.89,396.99z"/>
	<path fill-rule="evenodd" clip-rule="evenodd" fill="#0082C3" d="M308.971,361.338c-0.692,1.226-1.278,2.505-1.332,4.051
		c-0.267-0.054-0.479-0.374-0.746-0.427c-1.438-1.119-3.41-2.025-5.329-2.451c-1.758-0.746-4.05-0.374-6.021-0.374
		c-0.054,0.374,0.266,0.693,0.586,0.853c0,0.213,0.16,0.479,0.373,0.586c0.053,0.213,0.213,0.426,0.426,0.533
		c0.053,0.213,0.213,0.479,0.426,0.586c-0.053,0.374,0.48,0.533,0.586,0.799c0.479,0.267,0.373,0.959,0.959,1.119
		c-0.054,0.479,0.639,0.479,0.479,1.013c-0.053,0.107-0.213,0.053-0.32,0.053c-0.16,0.107-0.32,0.16-0.426,0.267
		c-0.16,0-0.213,0-0.426,0.213c-0.107-0.053-0.213-0.053-0.426,0.16c-0.693-0.107-1.013-0.533-1.439-0.746
		c-1.333-0.533-2.611-1.332-4.104-1.226c0,0.426,0.479,0.746,0.799,1.012c0,0.213,0.16,0.427,0.426,0.533
		c0.053,0.693,1.066,0.799,1.013,1.545c-0.16,0.053-0.32,0.266-0.479,0.426c-0.16,0.213,0,0.48,0.16,0.639
		c0.16,0,0.32,0,0.479,0.054c0.106,0.053,0.16,0.16,0.267,0.213c0.853,0.906,1.172,2.239,0.693,3.304c-0.373,0-0.32-0.64-0.64-0.693
		c-0.053-0.533-0.64-0.799-0.853-1.226c-0.533,0-0.533-0.533-1.013-0.533c-0.213-0.373-0.639-0.426-0.959-0.586
		c-0.054-0.213-0.267-0.267-0.426-0.267c-0.213-0.479-0.853-0.213-1.013-0.799c-1.492-0.586-3.038-1.119-4.743-1.226
		c-0.266-0.213-0.639,0.053-0.853-0.213c0.426-0.533,0.64-1.226,1.066-1.759c1.545-2.025,3.624-4.104,5.969-4.903
		c0.16-0.054,0.32-0.106,0.479-0.16c-0.053,0.16,0.16,0.106,0.213,0.213c3.624-0.32,7.194-0.692,10.978-0.746
		C305.507,361.232,307.266,361.285,308.971,361.338L308.971,361.338z"/>
	<path fill-rule="evenodd" clip-rule="evenodd" fill="#0082C3" d="M314.193,361.659c5.329,0.426,10.499,1.225,15.455,2.611
		c0.373,0,0.746,0.16,0.959,0.426c0.106-0.053,0.16,0.107,0.373,0c-0.106,0.16,0.16,0.16,0.106,0.32
		c0.586,0.267,1.119,0.586,1.705,0.799c0.16,0.427,0.854,0.16,0.96,0.746c0.373,0.053,0.64,0.693,1.065,0.799
		c0.373,0.267,0.586,0.746,0.959,0.959c0.107,0.16,0.48,0.319,0.533,0.533c0.32,0.426,0.64,0.746,0.8,1.119
		c0.319,0.16,0.267,0.586,0.586,0.747c-0.106,0.373,0.479,0.266,0.267,0.692c-1.173,0.16-2.345,0.267-3.357,0.746
		c-1.759,0.533-3.357,1.545-4.903,2.665c-0.053-0.8,1.066-1.599,1.759-2.025c0.16-0.16,0.267-0.267,0.427-0.427
		c0.373-0.426,1.119-0.266,1.172-0.905c-0.159-0.427-0.853-0.32-1.278-0.427c-2.292-0.373-4.424,0.533-6.289,1.706
		c-0.479,0.106-0.853,0.639-1.226,0.799c-0.213-0.213-0.053-0.693,0-1.013c0.106-0.266,0.213-0.586,0.479-0.853
		c0.106-0.426-0.479-0.64-0.586-0.906c-0.692-0.533-0.799-1.385-1.545-1.812c-0.054-0.479-0.587-0.853-0.906-1.119
		c-0.054-0.106-0.32-0.106-0.373,0.053c-0.054,0.107-0.106,0.213-0.16,0.319c-0.959,1.226-1.226,2.718-1.172,4.317
		c-0.48-0.16-0.854-0.853-1.279-1.065c-0.692-0.427-1.279-1.013-2.132-1.279c-0.213-0.32-0.799-0.267-0.959-0.693
		c1.652-1.705,3.783-2.824,5.969-3.57c0.373-0.213,0.853-0.374,1.438-0.533c0.427-0.054,0.746-0.16,1.065-0.213
		c0.32-0.16,1.066,0.053,1.013-0.48c-1.226-0.586-2.558-0.799-3.89-1.013c-0.479-0.159-1.173,0.107-1.599-0.213
		c-2.025,0.107-3.997,0.267-5.756,1.013c-0.106,0.053-0.213,0.106-0.319,0.213c-0.214,0-0.373,0.213-0.587,0.053
		c0.054-0.053,0.106-0.106,0.16-0.053c0-0.106,0-0.16,0.054-0.373c0.479-0.48,1.012-1.013,1.278-1.492
		C314.354,362.458,314.247,362.032,314.193,361.659L314.193,361.659z"/>
	<path fill-rule="evenodd" clip-rule="evenodd" fill="#0082C3" d="M356.027,410.473c1.599,0.268,3.197,0.533,4.743,0.801
		c0,0.531-0.427,0.691-0.64,1.119c-0.373,0.213-0.64,0.799-1.013,1.064c0,0.426-0.692,0.746-0.853,1.119
		c-0.106,0.107-0.426,0.107-0.319,0.373c-0.746,0.48-1.173,1.227-1.972,1.652c-0.32,0.693-1.066,0.586-1.546,1.172
		c-0.692,0.373-1.119,1.014-1.812,1.439c-0.32,0.107-0.427,0.32-0.693,0.48c-0.64,0.373-1.226,0.799-1.865,1.119
		c0.106,0.16-0.106,0.16-0.159,0.213c-0.214,0.105-0.48,0.318-0.746,0.426c-0.32,0.48-1.013,0.48-1.439,0.959
		c-0.373,0.16-0.692,0.32-1.013,0.586c-1.599,0.801-3.25,1.547-4.902,2.346c-0.373,0-0.64,0.32-0.959,0.426
		c-0.373-0.053-0.587,0.32-1.013,0.32c-0.267,0.213-0.64,0.32-0.96,0.533c-0.746,0.213-1.545,0.426-2.291,0.639
		c-0.906,0.426-1.919,0.586-2.878,0.906c-0.106,0.266-0.479,0-0.64,0.213c-8.207,2.559-17,3.783-26.272,3.996
		c-1.279-0.371-2.611-0.904-3.517-1.971c-0.16-0.213-0.16-0.533,0-0.693c0.906-1.012,2.398-1.119,3.784-1.332
		c4.104-0.799,8.847-0.213,13.057-0.799c1.013-0.16,1.972-0.48,2.931-0.746c0.32-0.213,0.479-0.533,0.32-0.854
		c-1.865-1.332-4.157-1.492-6.289-1.865c-8.26-1.225-16.2,0.746-24.407,0.48c-0.479-0.213-1.066-0.107-1.386-0.641
		c0-0.213-0.053-0.479,0.213-0.639c4.583-0.906,9.806-0.586,14.708-0.533c9.806,0.746,19.984,0.533,30.003,0.693
		c2.611-0.053,5.063-0.426,7.301-1.279c0.054-0.266,0.533-0.32,0.32-0.693c-1.706-1.598-4.104-1.598-6.289-2.078
		c-15.827-2.025-32.614-0.533-48.441,0.48c-1.706-0.053-3.464-0.107-4.903-0.746c-0.107-0.213-0.107-0.48,0-0.641
		c2.665-1.598,6.182-1.277,9.272-1.918c9.592-0.959,20.144-1.279,29.577,0.266c8.367,0.906,16.573,2.666,25.367,2.025
		c1.012-0.16,2.451-0.318,2.718-1.438c0-0.48-0.32-0.854-0.693-1.174c-1.386-1.172-3.144-1.279-4.85-1.545
		c-9.752-1.119-20.197-0.32-30.003,0.107c-5.063,0.158-9.805-0.373-14.442-1.174c-0.799-0.318-1.652-0.533-2.185-1.332
		c-0.107-0.426,0.16-0.586,0.426-0.746c3.357-0.904,7.194-0.691,10.871-0.799c7.621,0.266,15.241,0.48,22.702,1.172
		c6.075,0.746,11.938,2.025,18.386,1.918c1.013-0.053,1.972-0.158,2.718-0.691c-0.267-0.746-1.279-0.693-1.972-1.012
		c-3.304-0.746-6.928-0.801-10.605-0.746c-3.677,0.053-7.567,0.213-11.138-0.16c-0.905-0.32-2.238-0.107-2.824-0.961
		c0.106-0.373,0.586-0.426,0.853-0.586c5.702-1.119,12.204-0.746,18.119-0.318C349.686,409.727,352.83,410.1,356.027,410.473
		L356.027,410.473z"/>
	<path fill-rule="evenodd" clip-rule="evenodd" fill="#0082C3" d="M285.736,410.74c0.213,0.318,0.693,0.318,0.479,0.852
		c-0.106,0.055-0.32,0.055-0.32,0.268c-0.906,0.533-2.078,0.426-3.091,0.639c-7.514,0.639-15.455,0.213-23.128,0.107
		c-0.746,0.053-1.545,0.213-2.238,0.426c0,0.16,0,0.268,0,0.426c3.197,1.865,7.621,1.332,11.404,1.119
		c7.194-0.906,14.442-1.705,22.063-1.439c2.665,0.107,5.276,0.48,7.781,1.014c0.64,0.266,1.385,0.32,1.918,0.799
		c0,0.373-0.479,0.268-0.746,0.428c-2.878,0.371-5.862,0.586-8.953,0.586c-8.793,0.373-17.853,0.16-26.592,0.691
		c-1.492,0.16-2.931,0.32-4.316,0.641c-0.267,0.16-0.213,0.426-0.213,0.639c0.693,0.48,1.439,0.799,2.238,1.066
		c9.752,1.545,20.251,1.279,30.483,1.6c8.74-0.055,17.426-0.32,26.006-0.854c2.824,0.053,5.861-0.107,8.526,0.426
		c0.213,0.107,0.533,0.053,0.64,0.268c0,0.105,0,0.213,0,0.318c-5.17,0.586-10.552,0.746-15.881,0.961
		c-6.928,0.586-14.176,0.266-21.157,0.479c-5.01,0.533-10.286,0.32-15.135,1.279c-0.16,0.053-0.533,0.16-0.426,0.479
		c0.906,0.48,1.918,0.533,2.877,0.693c10.072,1.547,21.157,0.586,31.602,0.586c1.812,0.055,3.624,0.107,5.169,0.746
		c0.054,0.215,0.213,0.48,0.054,0.693c-0.16,0.213-0.373,0.213-0.533,0.373c-5.223,0.906-11.404-0.426-16.414,1.119
		c-0.64,0.479-1.865,0.639-1.492,1.813c0.906,1.012,2.025,1.438,3.25,1.758c0.16,0.053,0.053,0.268,0.053,0.426
		c-3.464,0-6.981-0.479-10.338-1.012c-5.702-0.854-11.084-2.346-16.36-4.104c-1.386-0.213-2.558-0.906-3.784-1.385
		c-5.382-2.346-10.499-5.223-15.188-9.113c-1.599-1.387-2.825-2.824-4.05-4.424c0-0.213,0.267-0.16,0.426-0.266
		c7.567-1.119,15.241-2.133,23.235-2.398C277.743,409.568,282.219,409.035,285.736,410.74L285.736,410.74z"/>
	<path fill-rule="evenodd" clip-rule="evenodd" fill="#36A04D" d="M343.717,392.514c0.267,3.038,0.32,6.181,0.48,9.273
		c-0.054,0-0.107,0.053-0.16,0.105c-0.906,0-1.865,0.107-2.718-0.053c-0.373-2.025-1.333-4.156-0.533-6.235
		c0.267-1.065,0.373-2.185,0.8-3.198C342.278,392.567,343.078,392.407,343.717,392.514L343.717,392.514z"/>
	<path fill-rule="evenodd" clip-rule="evenodd" fill="#36A04D" d="M283.658,392.674c0.107,1.492,0.533,2.665,0.64,4.211
		c-0.16,0-0.053,0.158-0.16,0.213c-0.906,0.105-1.919,0-2.825,0.105c-0.267-1.278,0-2.824-0.213-4.209
		c-0.053-0.106,0.107-0.213,0.16-0.32C282.059,392.674,282.858,392.674,283.658,392.674L283.658,392.674z"/>
	<path fill-rule="evenodd" clip-rule="evenodd" fill="#040607" d="M388.962,403.971h-2.025v0.375h0.799v2.184h0.427v-2.184h0.8
		V403.971L388.962,403.971z M390.134,403.971h-0.746v2.559h0.479v-2.078l0,0l0.8,2.078h0.319l0.8-2.078h0.053v2.078h0.427v-2.559
		h-0.692l-0.746,1.865L390.134,403.971L390.134,403.971z"/>
</g>
</svg>
